<svg xmlns="http://www.w3.org/2000/svg" width="40" height="41" fill="none" viewBox="0 0 40 41">
  <g clip-path="url(#a)">
    <path fill="url(#b)" d="M13.335 20.152a6.666 6.666 0 1 1 13.333 0 6.666 6.666 0 1 1-13.333 0Zm-3.604 0c0 5.672 4.598 10.27 10.27 10.27s10.27-4.598 10.27-10.27S25.672 9.883 20 9.883 9.73 14.48 9.73 20.153ZM28.277 9.476a2.4 2.4 0 1 0 2.4-2.4 2.401 2.401 0 0 0-2.4 2.4ZM11.921 36.432c-1.95-.089-3.01-.414-3.714-.688-.934-.364-1.6-.796-2.3-1.496a6.17 6.17 0 0 1-1.497-2.299c-.274-.704-.6-1.764-.688-3.714-.097-2.108-.116-2.741-.116-8.082 0-5.341.02-5.973.116-8.083.089-1.95.416-3.008.688-3.714.364-.934.797-1.6 1.496-2.3.7-.7 1.365-1.134 2.3-1.496.705-.275 1.765-.6 3.715-.688 2.108-.097 2.741-.117 8.08-.117 5.338 0 5.972.021 8.082.117 1.95.089 3.008.416 3.714.688.934.362 1.6.796 2.3 1.496.701.7 1.133 1.366 1.497 2.3.274.704.599 1.764.688 3.714.097 2.11.116 2.742.116 8.083 0 5.34-.02 5.972-.116 8.082-.09 1.95-.416 3.01-.688 3.714-.364.934-.797 1.6-1.496 2.299-.7.699-1.367 1.133-2.3 1.496-.705.275-1.765.6-3.715.688-2.108.097-2.741.116-8.082.116-5.341 0-5.973-.019-8.08-.116ZM11.755.274C9.625.37 8.171.708 6.9 1.203a9.81 9.81 0 0 0-3.542 2.306A9.772 9.772 0 0 0 1.05 7.052C.556 8.324.219 9.778.12 11.907.022 14.039 0 14.721 0 20.152c0 5.432.022 6.114.12 8.246.098 2.13.435 3.583.93 4.855a9.777 9.777 0 0 0 2.307 3.543A9.835 9.835 0 0 0 6.9 39.102c1.273.495 2.726.832 4.855.93 2.134.096 2.814.12 8.246.12 5.431 0 6.113-.022 8.245-.12 2.13-.098 3.583-.435 4.855-.93a9.836 9.836 0 0 0 3.543-2.306c1.113-1.112 1.795-2.228 2.307-3.543.494-1.272.833-2.726.928-4.855.098-2.134.12-2.814.12-8.245 0-5.432-.023-6.114-.12-8.246-.096-2.13-.434-3.584-.928-4.855a9.836 9.836 0 0 0-2.307-3.543 9.787 9.787 0 0 0-3.542-2.306C31.83.708 30.375.369 28.248.273c-2.133-.096-2.814-.12-8.246-.12-5.431 0-6.113.022-8.247.12Z"/>
    <path fill="url(#c)" d="M13.335 20.152a6.666 6.666 0 1 1 13.333 0 6.666 6.666 0 1 1-13.333 0Zm-3.604 0c0 5.672 4.598 10.27 10.27 10.27s10.27-4.598 10.27-10.27S25.672 9.883 20 9.883 9.73 14.48 9.73 20.153ZM28.277 9.476a2.4 2.4 0 1 0 2.4-2.4 2.401 2.401 0 0 0-2.4 2.4ZM11.921 36.432c-1.95-.089-3.01-.414-3.714-.688-.934-.364-1.6-.796-2.3-1.496a6.17 6.17 0 0 1-1.497-2.299c-.274-.704-.6-1.764-.688-3.714-.097-2.108-.116-2.741-.116-8.082 0-5.341.02-5.973.116-8.083.089-1.95.416-3.008.688-3.714.364-.934.797-1.6 1.496-2.3.7-.7 1.365-1.134 2.3-1.496.705-.275 1.765-.6 3.715-.688 2.108-.097 2.741-.117 8.08-.117 5.338 0 5.972.021 8.082.117 1.95.089 3.008.416 3.714.688.934.362 1.6.796 2.3 1.496.701.7 1.133 1.366 1.497 2.3.274.704.599 1.764.688 3.714.097 2.11.116 2.742.116 8.083 0 5.34-.02 5.972-.116 8.082-.09 1.95-.416 3.01-.688 3.714-.364.934-.797 1.6-1.496 2.299-.7.699-1.367 1.133-2.3 1.496-.705.275-1.765.6-3.715.688-2.108.097-2.741.116-8.082.116-5.341 0-5.973-.019-8.08-.116ZM11.755.274C9.625.37 8.171.708 6.9 1.203a9.81 9.81 0 0 0-3.542 2.306A9.772 9.772 0 0 0 1.05 7.052C.556 8.324.219 9.778.12 11.907.022 14.039 0 14.721 0 20.152c0 5.432.022 6.114.12 8.246.098 2.13.435 3.583.93 4.855a9.777 9.777 0 0 0 2.307 3.543A9.835 9.835 0 0 0 6.9 39.102c1.273.495 2.726.832 4.855.93 2.134.096 2.814.12 8.246.12 5.431 0 6.113-.022 8.245-.12 2.13-.098 3.583-.435 4.855-.93a9.836 9.836 0 0 0 3.543-2.306c1.113-1.112 1.795-2.228 2.307-3.543.494-1.272.833-2.726.928-4.855.098-2.134.12-2.814.12-8.245 0-5.432-.023-6.114-.12-8.246-.096-2.13-.434-3.584-.928-4.855a9.836 9.836 0 0 0-2.307-3.543 9.787 9.787 0 0 0-3.542-2.306C31.83.708 30.375.369 28.248.273c-2.133-.096-2.814-.12-8.246-.12-5.431 0-6.113.022-8.247.12Z"/>
  </g>
  <defs>
    <radialGradient id="b" cx="0" cy="0" r="1" gradientTransform="translate(5.315 40.342) scale(52.2166)" gradientUnits="userSpaceOnUse">
      <stop offset=".09" stop-color="#FA8F21"/>
      <stop offset=".78" stop-color="#D82D7E"/>
    </radialGradient>
    <radialGradient id="c" cx="0" cy="0" r="1" gradientTransform="translate(24.259 42.133) scale(41.1539)" gradientUnits="userSpaceOnUse">
      <stop offset=".64" stop-color="#8C3AAA" stop-opacity="0"/>
      <stop offset="1" stop-color="#8C3AAA"/>
    </radialGradient>
    <clipPath id="a">
      <path fill="#fff" d="M0 0h40v40H0z" transform="translate(0 .153)"/>
    </clipPath>
  </defs>
</svg>
