<svg xmlns="http://www.w3.org/2000/svg" width="500" height="335" fill="none" viewBox="0 0 500 335">
  <path fill="#F5F5F5" d="M51.127 93.743s-7.76 2.94.74 19.466c8.5 16.527 14.386 24.7 14.386 24.7s1.507 3.84-1.726 4.447c-3.234.607-10.36-.507-11.787 3.46-1.48 4.113 1.513 8 7.573 11.333 6.06 3.334 19.06 11.26 20.234 12 1.173.74 2.306 2.487.173 3.254-2.133.766-18.153 2.507-16.88 10.047 1.273 7.54 19.7 14.186 21.7 14.946 2 .76 2.48 1.614 2.32 2.707-.16 1.093-5.6 1.173-10.133 1.853-4.534.68-9.674 2.254-8.574 6.554 1.1 4.3 12 13.286 38.507 15.793l12.34.353 6.667-10.413c12.94-23.233 11.72-37.334 8.8-40.667-2.92-3.333-7.127 0-10.254 3.333-3.126 3.334-6.273 7.794-7.266 7.334-.994-.46-1.42-1.367-.914-3.447.507-2.08 5.474-21.027 0-26.353-5.473-5.327-16 6.893-17.84 8.22-1.84 1.327-2.666-.667-2.586-2 .08-1.333.94-16.554 1.593-23.46.653-6.907-.84-11.567-5.067-12.667-4.073-1.067-7.193 5.434-9.526 7.754-2.334 2.32-4.667-1.101-4.667-1.101s-3.407-9.473-12.207-25.846c-8.8-16.374-15.773-11.487-15.773-11.487"/>
  <path fill="#E0E0E0" d="M120.667 227.576c-6.414-12.053-17.46-33.653-27.034-52.153-9.573-18.5-18.3-35.24-24.64-47.314-3.173-6-5.753-10.906-7.54-14.3a656.93 656.93 0 0 0-2.046-3.886c-.227-.44-.4-.774-.52-1.02a3.834 3.834 0 0 1-.167-.347s.073.107.2.333l.553.994 2.114 3.86c1.826 3.333 4.44 8.213 7.646 14.24 6.42 12.046 15.14 28.76 24.72 47.253 9.58 18.493 20.58 40.12 26.934 52.2"/>
  <path fill="#E0E0E0" d="M62.667 147.769c.295.053.586.133.866.24a68.23 68.23 0 0 1 2.294.794c1.926.706 4.566 1.74 7.46 2.933l7.38 3.087 2.24.92c.283.093.556.216.813.366a3.654 3.654 0 0 1-.86-.226 61.105 61.105 0 0 1-2.293-.807c-1.92-.72-4.547-1.793-7.44-2.987l-7.414-3.033-2.246-.907a3.838 3.838 0 0 1-.8-.38Zm21.886 7.554c-.093-.04 1.8-5.574 4.234-12.367 2.433-6.793 4.493-12.267 4.593-12.233.1.033-1.793 5.573-4.233 12.366-2.44 6.794-4.48 12.267-4.594 12.234ZM98 184.389c.137-.273.305-.53.5-.766l1.46-2c1.22-1.694 2.907-4.04 4.667-6.7 1.76-2.66 3.286-5.114 4.373-6.9l1.287-2.12a5.02 5.02 0 0 1 .506-.76 3.464 3.464 0 0 1-.38.833c-.266.52-.666 1.267-1.18 2.18a112.376 112.376 0 0 1-4.286 6.98 121.848 121.848 0 0 1-4.774 6.667c-.666.82-1.173 1.486-1.553 1.933-.183.239-.39.459-.62.653Zm-21.333-2.466a3.28 3.28 0 0 1 .84 0l2.286.173c1.927.167 4.587.42 7.52.72 2.934.3 5.594.594 7.514.827l2.273.293c.28.021.558.075.827.16-.28.032-.561.032-.84 0l-2.287-.173a525.46 525.46 0 0 1-7.527-.72c-2.94-.3-5.586-.593-7.506-.827l-2.274-.293a3.527 3.527 0 0 1-.826-.16Zm8.593 27.16a6.012 6.012 0 0 1 1.073 0l2.934.213c2.466.193 5.88.493 9.646.84 3.767.347 7.174.667 9.64.953l2.92.334c.36.025.717.083 1.067.173a5.567 5.567 0 0 1-1.08 0l-2.933-.213c-2.467-.194-5.88-.494-9.647-.847-3.767-.353-7.173-.667-9.64-.953l-2.92-.327a5.85 5.85 0 0 1-1.06-.173Zm26.64 2.3c.175-.345.378-.675.607-.987l1.753-2.606c1.48-2.207 3.513-5.26 5.66-8.667 2.147-3.407 4-6.587 5.333-8.88.667-1.1 1.174-2 1.587-2.72a6.93 6.93 0 0 1 .613-.974 5.657 5.657 0 0 1-.486 1.047 88.441 88.441 0 0 1-1.474 2.78 183.237 183.237 0 0 1-5.266 8.954c-2.16 3.44-4.22 6.473-5.754 8.666a136.588 136.588 0 0 1-1.853 2.54 6.686 6.686 0 0 1-.72.847Z"/>
  <path fill="#F5F5F5" d="M349.14 250.123c-17.787-11.62-22.44-34.073-22.38-54.387 0-3.386-.473-6.946 1.04-9.966 1.513-3.02 5.22-5.174 8.293-3.84 2.554 1.106 3.74 4 5.227 6.373a19.764 19.764 0 0 0 8.18 7.333c2.187 1.054 4.88 1.654 6.973.414 2.867-1.7 3.087-5.747 2.96-9.12l-.666-18.827c-.127-3.373-.247-6.807.706-10.04.954-3.233 3.167-6.273 6.347-7.267 3.18-.993 7.193.727 8 4 .327 1.334.093 2.8.227 4.194.133 1.393.84 2.92 2.18 3.273 1.34.353 2.666-.667 3.646-1.667 3.374-3.506 5.594-7.96 7.667-12.386 2.073-4.427 4.073-8.954 7.107-12.76 3.033-3.807 7.333-6.887 12.133-7.334 4.8-.446 10.047 2.394 11.413 7.087 1.367 4.693-1.253 9.62-4.146 13.56a75.338 75.338 0 0 1-15.194 15.407c-1.04.786-2.16 1.64-2.526 2.9-.667 2.266 1.533 4.433 3.773 5.1 2.533.76 5.253.413 7.887.666 2.633.254 5.52 1.334 6.593 3.754 1.487 3.4-1.28 7.093-4.04 9.546a64.387 64.387 0 0 1-18.727 11.6c-2.446.98-5.033 1.86-6.973 3.66-1.94 1.8-3.06 4.874-1.773 7.207 1.286 2.333 4.4 3 6.98 2.44s4.86-2.047 7.333-3.053c4.573-1.894 10.56-1.76 13.653 2.146 2.034 2.574 2.314 6.227 1.427 9.394-.887 3.166-2.8 5.926-4.847 8.48-7.146 8.94-16.426 16.24-27.053 20.3-10.627 4.06-20.54 5.373-31.333 1.806"/>
  <path fill="#E0E0E0" d="M354 237.236c2.667-10.333 6.533-21.413 10.973-32.867 1.12-2.862 2.231-5.686 3.334-8.473 1.1-2.773 2.186-5.527 3.413-8.16a150.396 150.396 0 0 1 7.927-14.667c2.746-4.553 5.52-8.773 8.14-12.666 2.62-3.894 5.153-7.534 7.593-10.727a119.834 119.834 0 0 1 12.613-14.193 118.917 118.917 0 0 1 3.794-3.494l1.013-.88c.112-.103.233-.196.36-.28-.095.12-.2.231-.313.334l-.974.92c-.86.806-2.126 2-3.713 3.58a125.96 125.96 0 0 0-12.433 14.286c-2.407 3.2-4.907 6.814-7.514 10.747-2.606 3.933-5.333 8.16-8.08 12.707a153.651 153.651 0 0 0-7.866 14.666c-1.214 2.614-2.287 5.334-3.387 8.127-1.1 2.793-2.193 5.607-3.333 8.467-4.434 11.446-8.307 22.493-10.994 32.786"/>
  <path fill="#E0E0E0" d="M371.853 187.709a7.464 7.464 0 0 1-.373-1.426c-.207-.927-.46-2.274-.747-3.947-.58-3.333-1.226-8-1.913-13.093-.687-5.094-1.4-9.734-2.033-13.054a177.527 177.527 0 0 0-.767-3.933 6.112 6.112 0 0 1-.233-1.453c.203.449.359.918.466 1.4.267.906.6 2.24.96 3.893.747 3.333 1.527 7.94 2.22 13.06.694 5.12 1.274 9.62 1.734 13.113.222 1.583.406 2.916.553 4 .099.474.144.957.133 1.44Zm43.06-9.466a9.696 9.696 0 0 1-1.72.26c-1.106.133-2.713.32-4.666.606-3.954.554-9.387 1.507-15.334 2.82-5.946 1.314-11.28 2.754-15.106 3.9-1.92.56-3.46 1.054-4.527 1.387a9.141 9.141 0 0 1-1.68.467 9.722 9.722 0 0 1 1.6-.7 80.101 80.101 0 0 1 4.473-1.58c3.807-1.254 9.14-2.754 15.107-4.087a153.919 153.919 0 0 1 15.42-2.667c2-.233 3.6-.353 4.72-.413a9.161 9.161 0 0 1 1.713.007Zm-60.426 58.18a2.015 2.015 0 0 1-.314-.52l-.786-1.54c-.667-1.334-1.614-3.334-2.734-5.767-2.246-4.893-5.133-11.753-8.213-19.333-3.08-7.58-5.907-14.5-8.047-19.434l-2.546-5.84-.667-1.593a2.42 2.42 0 0 1-.2-.573c.13.156.236.332.313.52.214.413.474.926.794 1.54.666 1.333 1.606 3.333 2.726 5.76 2.247 4.9 5.134 11.76 8.22 19.38 3.087 7.62 5.9 14.493 8.04 19.426l2.527 5.794.667 1.593c.102.184.176.381.22.587Z"/>
  <path fill="#E0E0E0" d="M411.46 216.083a2.353 2.353 0 0 1-.56.253l-1.653.613-6.1 2.187c-5.154 1.853-12.24 4.487-20.067 7.413-7.827 2.927-14.94 5.5-20.133 7.24-2.594.874-4.667 1.56-6.167 2l-1.693.5a2.338 2.338 0 0 1-.6.134c.176-.11.367-.195.566-.254l1.654-.613 6.1-2.187c5.146-1.846 12.233-4.486 20.06-7.406 7.826-2.92 14.946-5.5 20.133-7.24 2.593-.874 4.667-1.56 6.167-2l1.693-.5c.193-.073.395-.12.6-.14Z"/>
  <path fill="#EBEBEB" d="M101.067 65.943c.533-3.907-4.974-7.12-9.12-7.453-2-.16-4 .146-5.894-.507-4.053-1.413-5.673-6.667-9.626-8.32-2.96-1.247-6.367-.133-9.234 1.333-2.866 1.467-5.7 3.247-8.9 3.433-2.786.18-5.813-.853-8.253.507-1.813 1.02-2.767 3.107-4.44 4.347-1.673 1.24-3.773 1.46-5.807 1.573-2.033.113-4.133.127-6 .98-1.866.854-3.38 2.8-2.993 4.8l70.267-.693Z"/>
  <path fill="#F5F5F5" d="M376.553 101.723c.56-4.04-5.146-7.334-9.433-7.707-2.04-.166-4.167.147-6.1-.526-4.193-1.467-5.867-6.88-9.96-8.607-3.06-1.293-6.587-.147-9.553 1.333-2.967 1.48-5.894 3.374-9.214 3.587-2.88.187-6-.887-8.533.526-1.88 1.047-2.86 3.214-4.593 4.487-1.734 1.273-3.907 1.52-6 1.633-2.094.114-4.28.134-6.2 1.014s-3.494 2.9-3.1 4.967l72.686-.707Zm85.547 17.74c.34-2.487-3.167-4.534-5.807-4.747-1.26-.1-2.566.093-3.76-.327-2.58-.9-3.613-4.233-6.133-5.3-1.88-.793-4.053-.086-5.88.834-1.827.92-3.627 2.08-5.673 2.206-1.774.114-3.7-.546-5.254.327-1.153.667-1.76 2-2.826 2.76a6.764 6.764 0 0 1-3.7 1.027 10.285 10.285 0 0 0-3.814.62c-1.18.54-2.16 1.786-1.913 3.06l44.76-.46Z"/>
  <path fill="#EBEBEB" d="M449.267 62.603c.626-4.527-5.767-8.254-10.567-8.667-2.287-.187-4.667.167-6.84-.593-4.667-1.634-6.573-7.707-11.16-9.64-3.427-1.42-7.367-.127-10.7 1.54-3.333 1.666-6.607 3.78-10.32 4-3.233.206-6.74-.987-9.567.587-2.106 1.18-3.206 3.606-5.146 5.033-1.94 1.426-4.38 1.7-6.734 1.827-2.353.126-4.8.153-6.94 1.133-2.14.98-3.92 3.253-3.48 5.573l81.454-.793Z"/>
  <path fill="#263238" d="M186.46 79.23c1.833-.787 3.793.886 4.793 2.613 1 1.727 1.807 3.813 3.634 4.613 1.42.62 3.053.267 4.606.327 4.767.186 8.46 4.3 10.6 8.567 1.334 2.666 2.307 5.726 1.42 8.559-.78 2.494-2.88 4.347-5.066 5.774a25.122 25.122 0 0 1-14.887 4.226 19.22 19.22 0 0 1-13.733-6.706c-2.567-3.147-3.934-7.127-4.527-11.14-.593-4.014-.46-8.094-.327-12.147"/>
  <path fill="#455A64" d="M207.087 100.243c-.034 0 0-.433-.08-1.187a9.136 9.136 0 0 0-.887-3.08 9.958 9.958 0 0 0-3.007-3.626 12.557 12.557 0 0 0-5.333-2.247c-2.033-.367-4.06-.18-5.88-.567a9.332 9.332 0 0 1-4.3-2.227 14.674 14.674 0 0 1-2.173-2.44c-.22-.313-.387-.56-.494-.74a1.651 1.651 0 0 1-.146-.273c.266.297.515.609.746.934a16.866 16.866 0 0 0 2.227 2.333 9.138 9.138 0 0 0 4.207 2.1c1.753.36 3.773.166 5.873.54a12.53 12.53 0 0 1 5.453 2.333 9.988 9.988 0 0 1 3.04 3.773 8.82 8.82 0 0 1 .8 3.174c.022.295.022.591 0 .886 0 .107-.015.212-.046.314Z"/>
  <path fill="#2941BE" d="m225.64 91.53-7.02 26.279-14.253-15.333a37.11 37.11 0 0 0-22.134-6l-22.173-1.033-12.24 4.407a45.281 45.281 0 0 0-8.44 4.099l-23.853 16.46c-5.047 3.647-9.194 6.434-10.167 12-1.28 7.334 2.433 15.554 10.16 16.914l33.74.406 1.04 21.334 53.033-4.934-1.42-32.193c10.827 8.34 15.914 11.587 24.06 10 2.714-.527 6.594-3.38 7.854-7.607 4.5-15.066 5.266-38.766 5.266-38.766l-13.453-6.034Zm-83.173 37.713 3.08-.874.193 1.114-3.273-.24Z"/>
  <path fill="#263238" d="M115.02 149.336h4.34l11.853-.033h39.247l-.173.166c0-.386.04-.8.06-1.213.246-5.3.486-10.427.706-15.193l.154.18c-11.94-1.114-22.174-2.834-29.474-3.76-3.653-.48-6.573-.8-8.573-1.034l-2.293-.253-.594-.073-.2-.034h.207l.593.047 2.3.2c2 .193 4.927.487 8.587.94 7.333.867 17.547 2.54 29.473 3.633h.16v.16c-.22 4.76-.453 9.894-.666 15.194 0 .413-.04.826-.06 1.206v.167h-.167l-39.247-.133-11.92-.087-3.22-.04h-.833a1.512 1.512 0 0 1-.26-.04Zm.68-22.793a2 2 0 0 1 .54-.267 11.859 11.859 0 0 1 1.56-.513 15.513 15.513 0 0 1 10.607 1.066c.495.236.971.508 1.426.814.177.099.338.222.48.366-.04.054-.753-.413-2-.96a17.097 17.097 0 0 0-10.453-1.046c-1.34.286-2.14.6-2.16.54Z"/>
  <path fill="#263238" d="M123.04 120.416a6.561 6.561 0 0 1 1.453.774 27.048 27.048 0 0 1 3.194 2.346c1.16 1.007 2.226 2 2.666 2.954.185.372.279.784.274 1.2a.888.888 0 0 1-.1.44 3.456 3.456 0 0 0-.387-1.527 11.863 11.863 0 0 0-2.667-2.8 42.46 42.46 0 0 0-3.106-2.407 9.567 9.567 0 0 1-1.327-.98Zm22.96 9.193a13.504 13.504 0 0 1-.6-2.086c-.333-1.294-.773-3.087-1.333-5.047-.56-1.96-1.107-3.72-1.567-4.973-.46-1.254-.767-2-.72-2.04.125.152.226.323.3.506.173.334.393.827.667 1.447a44.962 44.962 0 0 1 1.666 4.967c.54 2 .94 3.78 1.214 5.086.182.702.307 1.418.373 2.14Zm56.6 19.261c-.093 0-.473-8-.853-17.887s-.607-17.907-.507-17.907c.1 0 .48 8 .853 17.894.374 9.893.607 17.9.507 17.9Z"/>
  <path fill="#000" d="M201.527 116.75c.553 3.44 2 6.666 3.193 9.94 1.193 3.273 2 6.84 1.293 10.246l-4-3.206" opacity=".3"/>
  <path fill="#263238" d="M222.1 131.93a2.162 2.162 0 0 1-.307-.5c-.18-.334-.406-.827-.666-1.447a31.824 31.824 0 0 1-2.46-10.2c-.047-.667-.06-1.22-.054-1.593-.01-.206.008-.413.054-.614.128.715.215 1.436.26 2.16a41.379 41.379 0 0 0 2.406 10.154c.48 1.253.814 2.013.767 2.04Z"/>
  <path fill="#000" d="m142.72 117.643.86 11.286 1.967-.56-2.827-10.726Z" opacity=".3"/>
  <path fill="#FAFAFA" d="M200.313 117.576a.574.574 0 0 1-.173-.073l-.5-.24a14.71 14.71 0 0 0-1.967-.774 15.117 15.117 0 0 0-7.66-.386 16.085 16.085 0 0 0-4.933 2c-1.66.973-3.333 2.213-5.147 3.42a19.767 19.767 0 0 1-6.2 2.92 18.127 18.127 0 0 1-7.333.3 20.45 20.45 0 0 1-3.62-.987 18.538 18.538 0 0 1-3.247-1.66 17.499 17.499 0 0 1-2.733-2.22 24.956 24.956 0 0 1-2.193-2.546c-1.334-1.747-2.447-3.487-3.594-5.047a22.31 22.31 0 0 0-3.566-4 14.15 14.15 0 0 0-3.74-2.3 9.7 9.7 0 0 0-3.234-.727 8.657 8.657 0 0 0-2.8.4l.174-.073.52-.18c.233-.073.533-.127.88-.2.408-.057.82-.084 1.233-.08a9.319 9.319 0 0 1 3.293.667 14.189 14.189 0 0 1 3.834 2.293 21.77 21.77 0 0 1 3.633 4c1.167 1.553 2.293 3.293 3.62 5.013a25.484 25.484 0 0 0 2.173 2.514 17.442 17.442 0 0 0 2.667 2.166 18.574 18.574 0 0 0 3.187 1.627c1.153.433 2.345.755 3.56.96 2.396.398 4.849.301 7.206-.287a19.523 19.523 0 0 0 6.114-2.86c1.82-1.186 3.486-2.42 5.18-3.4a16.245 16.245 0 0 1 5.026-2 14.948 14.948 0 0 1 7.754.5c.671.227 1.325.505 1.953.834l.48.273.153.153Zm13.02-5.446c.063.268.088.544.074.82.011.755-.051 1.51-.187 2.253a11.868 11.868 0 0 1-1.06 3.18 20.42 20.42 0 0 1-2.2 3.453 16.34 16.34 0 0 1-5.787 4.627c-.677.324-1.38.593-2.1.807-.26.092-.531.152-.806.18 0-.067 1.12-.354 2.8-1.207a17.191 17.191 0 0 0 5.62-4.62 21.275 21.275 0 0 0 2.186-3.387c.504-.973.876-2.009 1.107-3.08.175-1.001.293-2.012.353-3.026Zm8.067 31.819s-.093-.033-.253-.14a6.232 6.232 0 0 1-.667-.473 10.919 10.919 0 0 1-2.14-2.207 16.504 16.504 0 0 1-3.007-9.553c.07-3.384.652-6.737 1.727-9.947.38-1.24.72-2.226.96-2.906.113-.359.251-.708.413-1.047-.067.369-.16.732-.28 1.087-.22.753-.513 1.74-.86 2.933a35.936 35.936 0 0 0-1.613 9.88 16.816 16.816 0 0 0 2.84 9.433 15.023 15.023 0 0 0 2.88 2.94Zm15.72-29.859a3.225 3.225 0 0 1-.667.353c-.426.2-1.046.473-1.833.767a16.759 16.759 0 0 1-6.46 1.093 10.868 10.868 0 0 1-6.147-2.2 7.591 7.591 0 0 1-1.4-1.42 2.386 2.386 0 0 1-.386-.62 13.614 13.614 0 0 0 1.94 1.847 11.194 11.194 0 0 0 6 2.046c2.163.058 4.32-.274 6.366-.98 1.614-.52 2.56-.94 2.587-.886Zm-99.193 14.72c-.06 0-.327-1.04-.947-2.667a30.115 30.115 0 0 0-7.527-11.287c-1.273-1.2-2.14-1.86-2.106-1.906.239.108.463.247.666.413.566.414 1.11.859 1.627 1.333a26.966 26.966 0 0 1 7.587 11.38c.23.656.426 1.324.586 2 .067.239.105.485.114.734Zm7.786 1.146c-.04.126-.098.245-.173.353a7.617 7.617 0 0 1-.633.947 10.41 10.41 0 0 1-3.24 2.667 19.189 19.189 0 0 1-5.894 1.926c-2.3.394-4.866.554-7.5.98a22.16 22.16 0 0 0-3.773.927 15.569 15.569 0 0 0-3.233 1.593 16.51 16.51 0 0 0-4.4 4.207 16.887 16.887 0 0 0-1.947 3.647c-.36.913-.473 1.446-.513 1.433.007-.131.032-.261.073-.387.079-.371.183-.736.313-1.093a15.69 15.69 0 0 1 1.874-3.74 16.252 16.252 0 0 1 4.426-4.333 15.489 15.489 0 0 1 3.294-1.647 22.677 22.677 0 0 1 3.826-.953c2.667-.427 5.227-.574 7.507-.947a19.632 19.632 0 0 0 5.833-1.827 10.768 10.768 0 0 0 3.247-2.513c.627-.773.88-1.26.913-1.24Zm14.234 1.834c.106.211.184.435.233.666.175.608.306 1.227.393 1.854a17.62 17.62 0 0 1-1.306 9.52 16.91 16.91 0 0 1-1.334 2.48c-.341.532-.72 1.04-1.133 1.52-.3.333-.467.513-.487.493-.02-.02.594-.787 1.414-2.14.471-.797.888-1.626 1.246-2.48a20.814 20.814 0 0 0 1.02-3.227c.236-1.108.379-2.234.427-3.366a18.8 18.8 0 0 0-.093-2.767c-.174-1.587-.447-2.54-.38-2.553Zm41.546 10.106a18.675 18.675 0 0 0-4.48-1.28 19.235 19.235 0 0 0-4.666.187 3.926 3.926 0 0 1 1.333-.413 10.981 10.981 0 0 1 6.613.786c.44.166.847.41 1.2.72Z"/>
  <path fill="#FFBE9D" d="m232.587 74.99-6.707 16.653 12.62 5.653 3.24-14.16-9.153-8.146Z"/>
  <path fill="#455A64" d="m247.067 91.43-11.334-14.067c-2.286-3.16-5.926-8.247-6.093-8.667-.233-.666-.32-5.213-.213-6.366a36.396 36.396 0 0 0-.287-4.427l-9.333 3.54-1.994-7.2-1.28.4s-3.38 5.846-2.333 9.173c1.047 3.327 5.467 4.834 6.56 5.507s5.247 2.46 9.933 9.533l.754 1.094 1.9 2.746 8.666 12.467a3.165 3.165 0 0 0 2.083 1.347 3.155 3.155 0 0 0 3.662-2.717 3.145 3.145 0 0 0-.685-2.384l-.006.02Z"/>
  <path fill="#455A64" d="m224.807 59.516-2.44-6.88.88-.287s4.306 2.667 5.233 5.774l-3.673 1.393Z"/>
  <path fill="#263238" d="m222.2 68.603.107-.047.293-.133 1.1-.493 4-1.814-.1-.06c-.023.407-.023.814 0 1.22.008.46.107.913.293 1.334.46.786 1.02 1.56 1.594 2.386a338.075 338.075 0 0 0 3.786 5.247c.195.22.328.486.387.773a1.302 1.302 0 0 1-.928 1.443 1.304 1.304 0 0 1-.619.024 1.274 1.274 0 0 1-.666-.394c-.167-.206-.334-.453-.5-.666l-.98-1.334-3.38-4.56a4.012 4.012 0 0 0-.834-.813c-.293-.22-.58-.406-.846-.587-.54-.346-1.02-.626-1.414-.846-.393-.22-.706-.387-.913-.5l-.247-.12h-.086l.08.047.233.14.893.526c.394.233.86.52 1.394.873.266.18.553.374.833.594.309.223.581.493.807.8l3.333 4.58.973 1.333c.167.227.32.447.507.667a1.481 1.481 0 0 0 2.553-1.22 1.872 1.872 0 0 0-.42-.853c-1.333-1.84-2.666-3.607-3.8-5.24-.566-.82-1.14-1.6-1.586-2.36a3.326 3.326 0 0 1-.287-1.234 9.344 9.344 0 0 1 0-1.207v-.113l-.1.047-4 1.906-1.067.52-.273.134h-.12Z"/>
  <path fill="#000" d="m221.333 65.25 4.194-1.554-.027-2.346-4.233 1.613.066 2.286Z" opacity=".3"/>
  <path fill="#263238" d="M224.607 61.21a4.326 4.326 0 0 0-.167 1.733 4.36 4.36 0 0 0 .2 1.727 4.17 4.17 0 0 0 .167-1.734 4.356 4.356 0 0 0-.2-1.727Zm-1.274.466a4.306 4.306 0 0 0-.16 1.733 4.213 4.213 0 0 0 .2 1.727c.173-.56.227-1.15.16-1.733a4.214 4.214 0 0 0-.2-1.727Zm-1.213.3c-.173.56-.23 1.15-.167 1.733-.05.584.018 1.17.2 1.727.173-.56.229-1.15.167-1.733a4.356 4.356 0 0 0-.2-1.727Z"/>
  <path fill="#FFBE9D" d="m226.313 90.57.454-3.26.306-8.667-.333-6.06s2 .153 3.113 2.767c1.114 2.613 1.134 6.606 1.134 6.606s8.466 3.334 5.48 11.334m1.306-15.94a3.286 3.286 0 0 0-.386-1.954 2.827 2.827 0 0 0-1.887-1.173 5.396 5.396 0 0 0-2.067 0l1.594 2.22a31.912 31.912 0 0 0-.707 4.06c-.087.7-.08 1.573.527 1.933a1.333 1.333 0 0 0 1.56-.353 3.8 3.8 0 0 0 .72-1.567c.333-1.028.55-2.09.646-3.166Z"/>
  <path fill="#FFBE9D" d="M240.167 79.916a3.39 3.39 0 0 0-.387-1.953 2.81 2.81 0 0 0-1.893-1.173 5.332 5.332 0 0 0-2.06 0l1.586 2.22a33.232 33.232 0 0 0-.706 4.06c-.08.666-.08 1.573.533 1.933a1.333 1.333 0 0 0 1.56-.353c.355-.46.599-.997.713-1.567a14.45 14.45 0 0 0 .654-3.167Z"/>
  <path fill="#FFBE9D" d="M242.667 82.45a3.34 3.34 0 0 0-.387-1.96 2.804 2.804 0 0 0-1.887-1.174 5.662 5.662 0 0 0-2.066 0l1.593 2.22a32.266 32.266 0 0 0-.707 4.06c-.086.707-.08 1.573.527 1.94a1.333 1.333 0 0 0 1.56-.36c.353-.472.593-1.02.7-1.6.337-1.014.561-2.063.667-3.126Z"/>
  <path fill="#EB996E" d="M237.6 75.783a6.18 6.18 0 0 1 .127 2.96 6.295 6.295 0 0 1-.94 2.806c-.1-.04.38-1.266.6-2.86.22-1.593.113-2.893.213-2.906Zm2.56 3.48a6.208 6.208 0 0 1-1.06 4.993c-.093-.053.447-1.08.727-2.453.28-1.373.226-2.534.333-2.54ZM230 75.783c.167.572.29 1.156.367 1.746.193 1.1.453 2.667.746 4.514l-.106-.134a9.125 9.125 0 0 1 5.52 5.334 9.405 9.405 0 0 1 .666 3.193 9.18 9.18 0 0 1-.206 2.187 2.748 2.748 0 0 1-.227.773c.143-.975.205-1.96.187-2.947a9.574 9.574 0 0 0-.72-3.086 9.07 9.07 0 0 0-2.174-3.187 8.902 8.902 0 0 0-3.16-1.947h-.093v-.093c-.267-1.846-.48-3.42-.62-4.533a12.625 12.625 0 0 1-.18-1.82Z"/>
  <path fill="#263238" d="m229.12 57.883-.147.06-.426.16-1.574.587-5.173 2-5.167 2-1.573.586-.433.153c-.094.04-.147.054-.147.047l.14-.066.42-.18 1.553-.667c1.334-.527 3.14-1.247 5.154-2 2.013-.754 3.853-1.46 5.193-1.934.667-.233 1.207-.42 1.587-.54l.433-.14a.52.52 0 0 1 .16-.066Z"/>
  <path fill="#FFBE9D" d="M171.22 135.456s8.307-2.273 9.727-2.326c1.086-.034 7.386 1.033 10.286 1.533a2.104 2.104 0 0 1 1.78 2.34 1.55 1.55 0 0 1-.053.2 1.919 1.919 0 0 1-1.6 1.227 2.222 2.222 0 0 1 1.213 2.306c-.226 1.64-2.26 1.687-2.26 1.687s.1.107.24.293a2 2 0 0 1-1.46 3.14l-.926.067a1.962 1.962 0 0 1 .946 1.813c-.36 2.154-5.28 1.827-5.28 1.827l-13.213-.253.6-13.854Z"/>
  <path fill="#FFBE9D" d="M190.507 131.943c-.16.666-.56 2.193-1.874 2.666l-6.666-1.28s5.246-.96 6.08-1.706a5.848 5.848 0 0 1 1.1-.787.963.963 0 0 1 1.039.112.96.96 0 0 1 .321.995Z"/>
  <path fill="#EB996E" d="M185.14 133.77c0 .113 1.333.453 3.02.666 1.687.214 3.06.374 3.08.247.02-.127-1.333-.453-3.02-.667-1.687-.213-3.06-.366-3.08-.246Zm.933 3.959c0 .114 1.12.5 2.594.667 1.473.167 2.666.06 2.666-.06s-1.18-.206-2.626-.373c-1.447-.167-2.607-.354-2.634-.234Zm-3.333-.993c-.107.047-.033.433.307.733.34.3.726.327.76.214.033-.114-.207-.307-.467-.54-.26-.234-.487-.46-.6-.407Zm1.927 5.12c0 .12 1.273.374 2.86.56 1.586.187 2.9.247 2.92.127.02-.12-1.267-.367-2.867-.56-1.6-.193-2.88-.247-2.913-.127Zm-3.527-2.366c-.053 0-.173.093-.247.353-.086.345-.035.71.14 1.02.174.317.463.556.807.667.253.066.42 0 .427-.034.006-.033-.547-.28-.854-.833-.306-.553-.16-1.133-.273-1.173Zm1.907 6.359c0 .12 1.173.254 2.62.294 1.446.04 2.626 0 2.626-.14s-1.166-.254-2.613-.294c-1.447-.04-2.627.02-2.633.14Zm-3.407-2.673c-.053 0-.16.113-.193.373-.025.337.051.674.22.967.4.667.92.967.993.893.073-.073-.28-.546-.613-1.106-.334-.56-.3-1.094-.407-1.127Z"/>
  <path fill="#263238" d="M145.247 69.77c-.267-2.14-2.614-3.64-4.74-3.334a5.765 5.765 0 0 0-4.427 4.2 9.288 9.288 0 0 0 .667 6.28c.666 1.547 1.84 3.074 3.5 3.413a4.538 4.538 0 0 0 4.126-1.646 13.321 13.321 0 0 0 2.2-4.08l-1.326-4.834Z"/>
  <path fill="#2941BE" d="M147.953 69.303a1.684 1.684 0 0 0-2.133.473 3.629 3.629 0 0 0-.667 2.247 9.106 9.106 0 0 0 .747 3.873 1.384 1.384 0 0 0 .76.873.994.994 0 0 0 1.013-.373c.229-.309.382-.667.447-1.046a12.03 12.03 0 0 0-.327-6.727m37.934-9.613c3.746-1.834 5.9-3.734 5.586-5.287-.313-1.553-7.853-3.96-9.62-4.614-4.166-1.546-8.106 2.134-14.666 3.454-12.78 2.566-22.62 7.246-22 10.453.306 1.547 3 2.467 7.133 2.72"/>
  <path fill="#000" d="M183.493 59.343c3.334-1.627 5.334-3.334 4.954-4.667-1.014-3.773-10.214-3.333-21.547-1.026-11.333 2.306-20.047 6.4-19.473 9.26.273 1.373 2.666 2.186 6.32 2.413" opacity=".4"/>
  <path fill="#FFBE9D" d="M153.767 64.123a15.997 15.997 0 0 1 13.373-18.627c8.46-1.26 16.347 4.667 18.073 13.033 1.514 7.334 2.874 14.767 2.987 17.48.333 8.187-4.287 11.627-6.173 12.667a10.63 10.63 0 0 1-2.127.667.058.058 0 0 0-.02.009.043.043 0 0 0-.014.016.052.052 0 0 0-.008.02c0 .007 0 .014.002.021l2.32 9.294c1.153 6.113-2 11.78-8.087 13.007-6.086 1.226-11.186-3.24-12.46-9.334l-7.866-38.253Z"/>
  <path fill="#263238" d="M182.713 63.63a1.334 1.334 0 0 1-.973 1.54 1.246 1.246 0 0 1-1.547-.887 1.334 1.334 0 0 1 .974-1.54 1.248 1.248 0 0 1 1.546.886Zm.734-2.774c-.127.194-1.24-.327-2.614-.047-1.373.28-2.24 1.167-2.42 1.034-.18-.134 0-.394.387-.8a3.533 3.533 0 0 1 1.9-1.033 3.44 3.44 0 0 1 2.12.24c.513.24.687.513.627.606Zm-14.24 5.487a1.334 1.334 0 0 1-.974 1.54 1.253 1.253 0 0 1-1.566-.887 1.334 1.334 0 0 1 .973-1.54 1.243 1.243 0 0 1 1.349.437c.102.134.176.287.218.45Zm.793-2.52c-.12.2-1.233-.32-2.607-.047-1.373.273-2.24 1.173-2.426 1.033-.087-.06 0-.393.386-.8a3.637 3.637 0 0 1 1.9-1.033 3.432 3.432 0 0 1 2.12.247c.474.24.68.507.627.6Zm7.027 9.187a9.351 9.351 0 0 1 2.146-.847c.347-.107.667-.247.667-.493a1.83 1.83 0 0 0-.44-.994l-1.58-2.466c-2.2-3.514-3.873-6.434-3.733-6.52.14-.087 2.046 2.666 4.253 6.206l1.533 2.487c.305.377.468.849.46 1.333a.88.88 0 0 1-.473.627 2.263 2.263 0 0 1-.58.206 8.896 8.896 0 0 1-2.253.46Z"/>
  <path fill="#EB996E" d="M179.847 89.363s-5.22 1.5-12.667-1.16c0 0 3.507 6.593 13.28 3.66l-.613-2.5Zm-2.74-12.92a2.528 2.528 0 0 0-2.407-.474 2.29 2.29 0 0 0-1.387 1.147 1.445 1.445 0 0 0 .22 1.66 1.681 1.681 0 0 0 1.887.094 5.153 5.153 0 0 0 1.547-1.4c.136-.14.242-.306.313-.487a.468.468 0 0 0-.107-.507"/>
  <path fill="#263238" d="M173.173 74.776c.22-.06.52 1.434 2 2.234s3.047.32 3.1.526c.04.087-.293.36-.96.513a3.793 3.793 0 0 1-2.573-.353 3.332 3.332 0 0 1-1.593-1.893c-.174-.614-.08-1.013.026-1.027Zm-3.54-15.386c-.06.4-1.466.5-3.04 1.02-1.573.52-2.793 1.22-3.073.926-.127-.14.033-.54.487-1.006a5.538 5.538 0 0 1 4.666-1.48c.66.12.98.353.96.54Zm12.6-1.974c-.18.36-1.193.227-2.333.44-1.14.213-2.06.667-2.353.347-.127-.14-.04-.48.326-.86a3.43 3.43 0 0 1 3.767-.667c.467.267.667.567.593.74Z"/>
  <path fill="#263238" d="M173.087 50.976a8.934 8.934 0 0 1-5.707 5.047c-1.66.473-3.633.56-4.667 1.926-.766 1-.766 2.36-.94 3.607-.273 1.9.207 4.087-1.24 5.334-1.133.98-2.2.953-2.893 2.28-.693 1.326-.56 3.2-.273 4.753.286 1.553.666 4-.607 4.986-1.187-5.626-4.227-11.646-5.407-17.273a6.882 6.882 0 0 1-.213-2.547c.333-1.906 2.16-3.146 3.887-4 4.9-2.453 10.3-3.713 15.633-4.953"/>
  <path fill="#2941BE" d="M187.827 52.856s-6.04-12.94-6.46-13.547c-.42-.606-5.487-5.78-15.094-5.626l-7.66 1.54s-10.173 5.687-11.626 8.727c-1.454 3.04.28 16.08.28 16.08l20.54-8.98 15.333.626 4.687 1.18Z"/>
  <path fill="#2941BE" d="m163.453 32.63 2.114-.427a2.201 2.201 0 0 1 2.253.9c.419.63.73 1.327.92 2.06.633 2.353 4.453 18.58 4.453 18.58l-9.693 1.486-3.74-20.233-3.093 1.373-.06-.6c-.04-.363.032-.73.206-1.053a1.773 1.773 0 0 1 1.174-.873l5.466-1.214Z"/>
  <path fill="#455A64" d="m185.407 54.756-1.96-4.513-15.954-1.667-16.98 8.94 1.067 5.334s13.967-9.14 33.827-8.094Z"/>
  <path fill="#2941BE" d="m181.693 49.11.76.486 5.827 2.767s-10.527-1.334-20.84.84C157.127 55.376 146 61.256 146 61.256l6-5.493a12.066 12.066 0 0 1 7.64-5.427l12.927-2.86a11.997 11.997 0 0 1 9.126 1.633Z"/>
  <path fill="#263238" d="M186.84 52.85s-.12-.094-.38-.22a6.09 6.09 0 0 0-1.173-.447 18.943 18.943 0 0 0-4.56-.627 49.226 49.226 0 0 0-14.967 2.094c-2.84.786-5.567 1.48-8 2.34a61.618 61.618 0 0 0-6.26 2.666 26.31 26.31 0 0 0-2.287 1.287 4.346 4.346 0 0 0-1.506 1.333 1.804 1.804 0 0 0-.254 1.253c.067.294.18.414.194.407a1.773 1.773 0 0 1 .253-1.54 4.28 4.28 0 0 1 1.487-1.153 32.326 32.326 0 0 1 2.3-1.2c1.74-.8 3.873-1.713 6.253-2.553 2.38-.84 5.127-1.5 8-2.287a53.424 53.424 0 0 1 14.807-2.24 21.667 21.667 0 0 1 4.506.433c1.027.227 1.554.514 1.587.453Zm-1.507 1.76c1.847 4.126 8.287 10 2.114 15.7 0 0-1.947-9.334-3.44-12.82a7.555 7.555 0 0 0-1.787-2.807m-28.547 7.647a8.332 8.332 0 0 0-6.666 9.38c.206 1.1.666 2.186.526 3.333-.14 1.146-.72 2.046-.993 3.106-.54 2.094-.667 5.54.073 7.587 1.694 4.867 7.867 10.867 13.46 9.747"/>
  <path fill="#263238" d="M157.813 91.45a3.676 3.676 0 0 0 3.26-.98 6.776 6.776 0 0 0 1.727-3.047 11.874 11.874 0 0 0-2.173-10.727 17.415 17.415 0 0 0 .213-16.466L153 62.55l4.813 28.9Z"/>
  <path fill="#455A64" d="M145.333 74.563a3.44 3.44 0 0 1-1.24 1.113 6.033 6.033 0 0 1-3.933.86 5.916 5.916 0 0 1-3.607-1.787 2.46 2.46 0 0 1-.766-1.486c.251.485.567.933.94 1.333a6.203 6.203 0 0 0 3.473 1.614 6.296 6.296 0 0 0 3.767-.734c.88-.493 1.32-.96 1.366-.913Z"/>
  <path fill="#455A64" d="M144.733 73.51a3.33 3.33 0 0 1-1.38.493 7.075 7.075 0 0 1-6.54-2.107 3.378 3.378 0 0 1-.826-1.213c.046 0 .36.433 1 1.04a7.666 7.666 0 0 0 6.326 2.04c.874-.12 1.4-.307 1.42-.254Zm17.02-11.12c.022.263.006.527-.046.786a10.74 10.74 0 0 1-.5 2.1 11.796 11.796 0 0 1-10.82 8 10.407 10.407 0 0 1-2.154-.14 2.717 2.717 0 0 1-.766-.193c.966.092 1.937.121 2.906.087a12.052 12.052 0 0 0 10.607-7.827 24.86 24.86 0 0 0 .773-2.814ZM162 74.143s-.113.186-.387.46a6.653 6.653 0 0 1-1.333 1 10.35 10.35 0 0 1-5.247 1.333 20.87 20.87 0 0 1-5.333-.827c-.667-.186-1.2-.346-1.567-.473a2.166 2.166 0 0 1-.56-.22c.738.103 1.469.255 2.187.454 1.733.431 3.508.673 5.293.72 1.781.023 3.54-.387 5.127-1.194a17.236 17.236 0 0 0 1.82-1.253Z"/>
  <path fill="#263238" d="M188.167 51.51a2.133 2.133 0 0 1-.467-.134l-1.293-.466-4.754-1.707-1.226-1.1a7.467 7.467 0 0 0-1.374-1.08 4.451 4.451 0 0 0-1.753-.54 7.84 7.84 0 0 0-2 .187c-2.72.453-5.7 1.086-8.807 1.806a270.355 270.355 0 0 0-8.166 2 5.572 5.572 0 0 0-1.74.667 4.22 4.22 0 0 0-1.254 1.153c-.62.967-1.166 1.94-1.686 2.8l-4.62 3.414-1.274.92a3.217 3.217 0 0 1-.453.3 2.77 2.77 0 0 1 .413-.36l1.227-.974 4.48-3.486v.04c.52-.88 1.033-1.834 1.673-2.847.354-.508.808-.94 1.334-1.267a5.888 5.888 0 0 1 1.82-.666c2.52-.667 5.273-1.334 8.173-2 3.107-.72 6.093-1.334 8.833-1.794a7.822 7.822 0 0 1 2.047-.166 4.668 4.668 0 0 1 1.867.586c.514.32.989.7 1.413 1.133l1.207 1.114h-.04l4.72 1.806 1.273.507c.146.041.288.093.427.154Z"/>
  <path fill="#263238" d="M162.387 49.27a3.09 3.09 0 0 1-.187-.667 88.91 88.91 0 0 1-.393-1.827c-.314-1.54-.727-3.673-1.167-6-.207-1.18-.413-2.3-.6-3.333-.087-.507-.167-.993-.247-1.453a.609.609 0 0 0-.278-.433.615.615 0 0 0-.508-.074l-1.714.667a2.22 2.22 0 0 1-.666.213c.186-.135.387-.247.6-.334.4-.2.953-.473 1.693-.806a.88.88 0 0 1 1.14.666c.093.46.187.947.287 1.454.193 1.026.4 2.146.626 3.333.434 2.36.807 4.5 1.06 6.053.127.774.227 1.407.287 1.84.058.23.08.465.067.7Zm9.26-2.06a9.114 9.114 0 0 1-.7-1.927c-.367-1.214-.787-2.907-1.234-4.78-.446-1.873-.826-3.58-1.086-4.813a11.587 11.587 0 0 1-.347-2c.252.648.448 1.317.587 2 .32 1.22.74 2.913 1.186 4.786.447 1.873.82 3.467 1.134 4.8.191.635.345 1.28.46 1.933ZM188 74.003a10.725 10.725 0 0 0 3.96-.947 8.49 8.49 0 0 0 3.42-2.666 6.413 6.413 0 0 0 .84-5.12 6.732 6.732 0 0 0-3.013-4.254 42.232 42.232 0 0 0-4.08-1.78 6.94 6.94 0 0 1-2.46-1.786 3.765 3.765 0 0 1-.46-.667c-.08-.167-.12-.26-.107-.267.206.303.429.595.667.873a7.335 7.335 0 0 0 2.473 1.627c1.415.495 2.8 1.074 4.147 1.733a6.95 6.95 0 0 1 3.18 4.447 6.655 6.655 0 0 1-.914 5.387 8.545 8.545 0 0 1-3.58 2.727c-.934.408-1.93.66-2.946.746-.276.02-.552.02-.827 0a.765.765 0 0 1-.3-.053Zm-49.9-2.653s-.06 0-.153-.114a2.915 2.915 0 0 1-.367-.4 4.153 4.153 0 0 1-.753-1.833 4.405 4.405 0 0 1 .526-2.9 4.356 4.356 0 0 1 6.46-.974 4.404 4.404 0 0 1 1.367 2.607 4.23 4.23 0 0 1-.18 2c-.059.17-.137.334-.233.487-.06.106-.1.16-.107.153-.007-.007.093-.24.207-.666a4.48 4.48 0 0 0 .073-1.9 4.247 4.247 0 0 0-1.333-2.407 4.102 4.102 0 0 0-6 .9 4.28 4.28 0 0 0-.56 2.666 4.47 4.47 0 0 0 .626 1.787c.267.387.447.567.427.594Zm20.747 23.026a.922.922 0 0 1-.28.1c-.187.06-.46.127-.82.213a18.3 18.3 0 0 1-3.094.46c-1.56.123-3.128-.12-4.58-.706a8.842 8.842 0 0 1-4.12-3.88 11.557 11.557 0 0 1-1.393-5.5 16.28 16.28 0 0 1 .667-4.594c.293-.998.658-1.974 1.093-2.92a12.1 12.1 0 0 1 .373-.76c.04-.09.092-.175.154-.253-.112.364-.245.72-.4 1.067a25.874 25.874 0 0 0-.98 2.933 16.558 16.558 0 0 0-.607 4.52 11.325 11.325 0 0 0 1.38 5.334 8.57 8.57 0 0 0 3.94 3.753c1.419.59 2.952.852 4.487.766a21.674 21.674 0 0 0 3.073-.346 8.578 8.578 0 0 1 1.107-.187Z"/>
  <path fill="#263238" d="M144.62 77.916a.946.946 0 0 1-.08.314 3.64 3.64 0 0 1-.427.846 5.021 5.021 0 0 1-2.793 2 4.96 4.96 0 0 1-2.4.107 5.946 5.946 0 0 1-2.507-1.174 6.765 6.765 0 0 1-1.906-2.38 7.591 7.591 0 0 1-.707-3.2 9.189 9.189 0 0 1 2.08-5.86 5.813 5.813 0 0 1 4.493-2.28 4.598 4.598 0 0 1 3.18 1.254c.319.283.564.64.714 1.04a6.222 6.222 0 0 0-.8-.94 4.6 4.6 0 0 0-3.094-1.107 5.597 5.597 0 0 0-4.246 2.233 8.972 8.972 0 0 0-2 5.66 7.33 7.33 0 0 0 .666 3.054 6.588 6.588 0 0 0 1.8 2.28c.69.554 1.497.944 2.36 1.14a4.86 4.86 0 0 0 2.287-.067 5.057 5.057 0 0 0 2.747-1.826 7.82 7.82 0 0 0 .633-1.094Z"/>
  <path fill="#455A64" d="M335.173 149.969H118.207c-5.365 0-9.714 4.349-9.714 9.714v136.9c0 5.364 4.349 9.713 9.714 9.713h216.966c5.365 0 9.714-4.349 9.714-9.713v-136.9c0-5.365-4.349-9.714-9.714-9.714Z"/>
  <path fill="#455A64" d="M99.253 296.203h256.114v1.813a11.868 11.868 0 0 1-11.867 11.867H111.12a11.864 11.864 0 0 1-11.867-11.867v-1.813Z"/>
  <path fill="#263238" d="M337.88 156.183H114.84v132.013h223.04V156.183ZM203.387 294.736l3.18 5.054h44.72l2.953-5.054h-50.853Z"/>
  <path fill="#EBEBEB" d="M331.567 160.65H121.613a2.18 2.18 0 0 0-2.18 2.18v122.76a2.18 2.18 0 0 0 2.18 2.18h209.954a2.18 2.18 0 0 0 2.18-2.18V162.83a2.18 2.18 0 0 0-2.18-2.18Z"/>
  <path fill="#FAFAFA" d="M333.513 287.963H119.207l.226-117.807h214.08v117.807Z"/>
  <path fill="#263238" d="M137.007 165.576a1.713 1.713 0 1 1-3.425-.001 1.713 1.713 0 0 1 3.425.001Zm-10.34 0a1.72 1.72 0 0 1-1.059 1.584 1.716 1.716 0 0 1-2.236-2.244 1.713 1.713 0 0 1 1.588-1.053 1.712 1.712 0 0 1 1.209.502 1.708 1.708 0 0 1 .498 1.211Zm4.946 0a1.712 1.712 0 0 1-2.927 1.209 1.71 1.71 0 0 1-.367-1.869 1.717 1.717 0 0 1 1.588-1.053 1.715 1.715 0 0 1 1.706 1.713Zm211.24 129.16c0 .087-52.466.154-117.173.154s-117.187-.067-117.187-.154c0-.086 52.46-.153 117.187-.153s117.173.067 117.173.153Z"/>
  <path fill="#E0E0E0" d="M253.947 264.969c0 .094-12.854.174-28.707.174-15.853 0-28.707-.08-28.707-.174 0-.093 12.854-.173 28.707-.173 15.853 0 28.707.113 28.707.173Z"/>
  <path fill="#F5F5F5" d="M188.34 234.776h-63.953v48.067h63.953v-48.067Z"/>
  <path fill="#E0E0E0" d="m124.413 282.876 22.307-29.9 13.853 18.68 9.38-10 18.414 21.16-63.954.06Zm42.014-33.58a5.038 5.038 0 0 1-3.101 4.655 5.035 5.035 0 0 1-6.868-3.66 5.034 5.034 0 0 1 6.856-5.643 5.024 5.024 0 0 1 3.113 4.648Z"/>
  <path fill="#F5F5F5" d="M326.333 234.849H262.38v48.067h63.953v-48.067Z"/>
  <path fill="#E0E0E0" d="m262.4 282.95 22.313-29.901 13.854 18.681 9.373-10 18.413 21.16-63.953.06Zm42.02-33.58a5.038 5.038 0 0 1-8.601 3.572 5.033 5.033 0 0 1-1.096-5.493 5.039 5.039 0 0 1 9.697 1.921Zm11.793-24.074a9.134 9.134 0 0 1 1.794-.12c1.106 0 2.666-.053 4.326-.053h1.88l-.166.167c0-1.234.033-2.294.066-3.047a5.037 5.037 0 0 1 .1-1.194c.082.393.118.793.107 1.194 0 .753.047 1.813.06 3.047v.166h-2.047c-1.686 0-3.22 0-4.326-.053a9.054 9.054 0 0 1-1.794-.107Zm-16 0a46.263 46.263 0 0 1 8 0 46.263 46.263 0 0 1-8 0Zm-16 0a46.263 46.263 0 0 1 8 0 46.263 46.263 0 0 1-8 0Zm-16 0a46.263 46.263 0 0 1 8 0 46.263 46.263 0 0 1-8 0Zm-16 0a46.263 46.263 0 0 1 8 0 46.263 46.263 0 0 1-8 0Zm-16 0a46.263 46.263 0 0 1 8 0 46.263 46.263 0 0 1-8 0Zm-16 0a46.263 46.263 0 0 1 8 0 46.263 46.263 0 0 1-8 0Zm-16 0a46.263 46.263 0 0 1 8 0 46.263 46.263 0 0 1-8 0Zm-16 0a23.563 23.563 0 0 1 4-.173 23.559 23.559 0 0 1 4 .173c-1.326.172-2.664.23-4 .173a23.563 23.563 0 0 1-4-.173Zm-16 0a23.563 23.563 0 0 1 4-.173 23.559 23.559 0 0 1 4 .173c-1.326.172-2.664.23-4 .173a23.563 23.563 0 0 1-4-.173Zm-16 0a23.563 23.563 0 0 1 4-.173 23.559 23.559 0 0 1 4 .173c-1.326.172-2.664.23-4 .173a23.563 23.563 0 0 1-4-.173Zm-16 0a23.563 23.563 0 0 1 4-.173 23.559 23.559 0 0 1 4 .173c-1.326.172-2.664.23-4 .173a23.563 23.563 0 0 1-4-.173Zm-15.986-.007a24.522 24.522 0 0 1 4-.166 23.559 23.559 0 0 1 4 .173c-1.326.172-2.664.23-4 .173a24.522 24.522 0 0 1-4-.166v-.014Zm0-15.999a46.263 46.263 0 0 1 0 8 46.263 46.263 0 0 1 0-8Zm0-16c.171 1.326.229 2.664.173 4a23.563 23.563 0 0 1-.173 4 22.67 22.67 0 0 1-.174-4 22.661 22.661 0 0 1 .174-4Zm0-16c.171 1.326.229 2.664.173 4a23.563 23.563 0 0 1-.173 4 22.67 22.67 0 0 1-.174-4 22.661 22.661 0 0 1 .174-4Zm13.88-2.12a23.559 23.559 0 0 1-4 .173 23.559 23.559 0 0 1-4-.173 22.661 22.661 0 0 1 4-.174 22.666 22.666 0 0 1 4 .174Zm16 0a23.559 23.559 0 0 1-4 .173 23.559 23.559 0 0 1-4-.173 22.661 22.661 0 0 1 4-.174 22.666 22.666 0 0 1 4 .174Zm16 0a23.559 23.559 0 0 1-4 .173 23.559 23.559 0 0 1-4-.173 22.661 22.661 0 0 1 4-.174 22.666 22.666 0 0 1 4 .174Zm16 0a23.559 23.559 0 0 1-4 .173 23.559 23.559 0 0 1-4-.173 22.661 22.661 0 0 1 4-.174 22.666 22.666 0 0 1 4 .174Zm16 0a46.263 46.263 0 0 1-8 0 22.661 22.661 0 0 1 4-.174 22.666 22.666 0 0 1 4 .174Zm16-.001a46.064 46.064 0 0 1-8 0 46.263 46.263 0 0 1 8 0Zm16 0a46.064 46.064 0 0 1-8 0 46.263 46.263 0 0 1 8 0Zm16 0a46.064 46.064 0 0 1-8 0 46.263 46.263 0 0 1 8 0Zm16 0a46.064 46.064 0 0 1-8 0 46.263 46.263 0 0 1 8 0Zm16 0a46.064 46.064 0 0 1-8 0 46.263 46.263 0 0 1 8 0Zm16 0a46.064 46.064 0 0 1-8 0 46.263 46.263 0 0 1 8 0Zm16 0a46.064 46.064 0 0 1-8 0 46.263 46.263 0 0 1 8 0Zm10.106 5.887a23.559 23.559 0 0 1-.173-4v-1.886l.153.153a9.655 9.655 0 0 1-2.106-.153 9.074 9.074 0 0 1 2.106-.154h.154v2.047a22.769 22.769 0 0 1-.134 3.993Zm0 16a23.559 23.559 0 0 1-.173-4 23.559 23.559 0 0 1 .173-4c.176 1.326.234 2.664.174 4 .06 1.336.002 2.675-.174 4Zm0 16a46.263 46.263 0 0 1 0-8 46.263 46.263 0 0 1 0 8Zm-70.266 68.12c0 .1-12.854.174-28.707.174-15.853 0-28.707-.074-28.707-.174 0-.1 12.854-.173 28.707-.173 15.853 0 28.707.08 28.707.173Zm0-7.413c0 .093-12.854.173-28.707.173-15.853 0-28.707-.08-28.707-.173 0-.094 12.854-.174 28.707-.174 15.853 0 28.707.08 28.707.174Z"/>
  <path fill="#263238" d="M78.107 216.596h-3.454v93.154h3.454v-93.154Z"/>
  <path fill="#2941BE" d="M76.38 219.916c11.09 0 20.08-8.99 20.08-20.08 0-11.09-8.99-20.08-20.08-20.08-11.09 0-20.08 8.99-20.08 20.08 0 11.09 8.99 20.08 20.08 20.08Z"/>
  <path fill="#fff" d="M94.46 199.576a1.452 1.452 0 0 1-.033-.293c0-.207 0-.493-.06-.853 0-.194 0-.4-.04-.634-.04-.233-.08-.48-.12-.753a12.443 12.443 0 0 0-.38-1.86 17.184 17.184 0 0 0-2-4.787 18.073 18.073 0 0 0-4.574-5.086 17.878 17.878 0 0 0-16.966-2.56c-.8.288-1.58.631-2.334 1.026-.38.207-.746.447-1.12.667a9.686 9.686 0 0 0-1.08.747 20.514 20.514 0 0 0-2 1.726 19.666 19.666 0 0 0-1.76 2.08 17.33 17.33 0 0 0-2.553 4.934 18.996 18.996 0 0 0-.96 5.646c.024 1.918.334 3.821.92 5.647a17.397 17.397 0 0 0 2.56 4.94c.539.73 1.125 1.425 1.753 2.08a20.8 20.8 0 0 0 2.034 1.727c.342.272.703.522 1.08.746.373.22.74.46 1.12.667a17.71 17.71 0 0 0 2.333 1.027 17.965 17.965 0 0 0 21.54-7.647 17.09 17.09 0 0 0 2-4.78c.174-.612.3-1.236.38-1.867.047-.266.093-.52.12-.753.027-.233 0-.44.04-.627.027-.369.047-.655.06-.86.001-.098.012-.197.033-.293a1.63 1.63 0 0 1 0 .293v1.527c0 .233-.066.48-.1.76-.072.634-.19 1.262-.353 1.88a17.256 17.256 0 0 1-2 4.847 18.2 18.2 0 0 1-12.24 8.62 18.235 18.235 0 0 1-9.573-.774 18.691 18.691 0 0 1-2.387-1.04c-.38-.206-.753-.446-1.133-.666a9.66 9.66 0 0 1-1.114-.787 19.767 19.767 0 0 1-2.073-1.753 21.115 21.115 0 0 1-1.793-2.114 17.847 17.847 0 0 1-2.614-5.026 18.12 18.12 0 0 1 0-11.52 17.852 17.852 0 0 1 2.614-5.027c.55-.741 1.15-1.445 1.793-2.107a19.883 19.883 0 0 1 2.073-1.786 8.722 8.722 0 0 1 1.1-.754c.38-.226.754-.473 1.134-.666a19.565 19.565 0 0 1 2.386-1.04 18.213 18.213 0 0 1 9.574-.767A18.165 18.165 0 0 1 92 190.31a17.18 17.18 0 0 1 2 4.853c.163.617.281 1.245.353 1.88.034.273.08.527.1.76.02.233 0 .44 0 .667v.86c.009.081.011.164.007.246Z"/>
  <path fill="#FAFAFA" d="M86.84 197.33H65.927v4.36H86.84v-4.36Z"/>
  <path fill="#fff" d="m345.601 174.091-195.597 15.703 4.559 56.784 195.597-15.703-4.559-56.784Z"/>
  <path fill="#263238" d="M350.173 230.85c-.066-.82-1.726-20.994-4.666-56.774l.113.1-195.58 15.78.153-.186c1.574 19.6 3.107 38.666 4.56 56.78l-.18-.154 139.8-11.153 55.8-4.393-.953.086-2.827.24-10.966.9-40.927 3.334-139.907 11.333h-.166v-.173c-1.46-18.1-2.994-37.18-4.567-56.78v-.174h.173l195.567-15.66h.113v.107c2.814 35.787 4.4 55.967 4.46 56.787Z"/>
  <path fill="#2941BE" d="m217.138 191.248-61.767 4.323 3.25 46.427 61.767-4.324-3.25-46.426Z"/>
  <path fill="#E0E0E0" d="M293.88 230.83a23.721 23.721 0 0 1-4 .506l-.187-.16v-.793c0-.254-.04-.5-.053-.747 0-.44-.047-.86-.073-1.273a4.045 4.045 0 0 1 0-1.173c.129.371.203.76.22 1.153.046.407.093.826.146 1.266 0 .24.047.494.067.747l.04.394v.393l-.187-.16a23.875 23.875 0 0 1 4.027-.153Zm18.12-1.527c-1.487.295-2.993.48-4.507.553a28.696 28.696 0 0 1-4.54.207 30.913 30.913 0 0 1 4.507-.554 28.707 28.707 0 0 1 4.54-.206Zm18.067-1.527c-1.487.295-2.993.48-4.507.553a29.565 29.565 0 0 1-4.54.207 30.775 30.775 0 0 1 4.507-.553 28.696 28.696 0 0 1 4.54-.207Zm12.693-5.086c.289 1.304.461 2.631.513 3.966-.32.38-.093.107-.16.194h-.806l-.747.053-1.267.073a4.093 4.093 0 0 1-1.18 0 4.134 4.134 0 0 1 1.16-.22l1.26-.147.747-.073.4-.033h.4c-.067.08.16-.187-.153.187a23.564 23.564 0 0 1-.167-4Zm-1.26-14.927c.457 2.46.68 4.958.667 7.46a20.37 20.37 0 0 1-.487-3.714 20.947 20.947 0 0 1-.18-3.746Zm-1.26-14.92c.28 1.22.445 2.463.493 3.713.161 1.242.208 2.496.14 3.747a19.848 19.848 0 0 1-.486-3.72 20.876 20.876 0 0 1-.147-3.74Zm-4.953-11.113a23.813 23.813 0 0 1 4-.507l.186.16v.793c0 .254.034.5.054.747 0 .44.046.86.066 1.273.059.389.059.785 0 1.174a4.059 4.059 0 0 1-.22-1.154c-.046-.407-.093-.826-.146-1.266 0-.24-.047-.494-.074-.747l-.033-.393v-.394l.193.16a24.071 24.071 0 0 1-4.026.154Zm-18.087 1.526a30.488 30.488 0 0 1 4.507-.553 28.614 28.614 0 0 1 4.533-.207 30.49 30.49 0 0 1-4.507.554 28.495 28.495 0 0 1-4.533.206Zm-18.093 1.527a30.477 30.477 0 0 1 4.506-.554 29.565 29.565 0 0 1 4.54-.206c-1.488.295-2.997.48-4.513.553a28.614 28.614 0 0 1-4.533.207Zm-12.7 5.087a23.556 23.556 0 0 1-.507-3.967c.313-.38.087-.107.16-.187h.407l.393-.033.747-.053 1.273-.074a4.165 4.165 0 0 1 1.18 0 4.17 4.17 0 0 1-1.16.22l-1.267.147-.746.073-.394.034h-.406l.16-.187c.174 1.335.228 2.682.16 4.027Zm1.26 14.926a20.634 20.634 0 0 1-.487-3.72 19.731 19.731 0 0 1-.14-3.74c.276 1.22.438 2.463.487 3.713.164 1.242.211 2.497.14 3.747Zm1.26 14.92a20.37 20.37 0 0 1-.487-3.713 19.805 19.805 0 0 1-.14-3.747c.275 1.223.438 2.468.487 3.72.165 1.24.211 2.492.14 3.74Z"/>
  <path fill="#2941BE" d="m158.453 241.249 19.474-30.313 14.613 17.06 8.353-10.273 19.174 19.146-61.614 4.38Zm38.214-35.193a4.878 4.878 0 0 1-.625 2.756 4.874 4.874 0 0 1-4.836 2.421 4.873 4.873 0 0 1-2.581-1.151 4.865 4.865 0 1 1 6.373-7.354 4.874 4.874 0 0 1 1.669 3.328Z"/>
  <path fill="#000" d="m158.453 241.249 19.474-30.313 14.613 17.06 8.353-10.273 19.174 19.146-61.614 4.38Zm38.214-35.193a4.878 4.878 0 0 1-.625 2.756 4.874 4.874 0 0 1-4.836 2.421 4.873 4.873 0 0 1-2.581-1.151 4.865 4.865 0 1 1 6.373-7.354 4.874 4.874 0 0 1 1.669 3.328Z" opacity=".2"/>
  <path fill="#263238" d="M281.007 198.536c0 .1-11.967 1.28-26.747 2.667-14.78 1.386-26.773 2.393-26.787 2.293-.013-.1 12-1.273 26.754-2.667 14.753-1.393 26.773-2.386 26.78-2.293Zm1.553 8.907c0 .1-12.107 1.293-27.047 2.666-14.94 1.374-27.073 2.42-27.086 2.327-.014-.093 12.1-1.293 27.053-2.667 14.953-1.373 27.067-2.42 27.08-2.326Zm1.547 8.913c0 .093-12.234 1.3-27.334 2.667-15.1 1.366-27.333 2.446-27.333 2.353 0-.093 12.227-1.3 27.333-2.7 15.107-1.4 27.327-2.433 27.334-2.32Zm.32 8.827c0 .1-12.247 1.333-27.367 2.707-15.12 1.373-27.4 2.446-27.407 2.353-.006-.093 12.247-1.333 27.374-2.7 15.126-1.367 27.393-2.453 27.4-2.36Z"/>
  <path fill="#2941BE" d="m254.45 192.657-28.182 2.262.179 2.233 28.183-2.263-.18-2.232Z"/>
  <path fill="#E0E0E0" d="M315.213 213.25c-.093 0-.46-3.28-.813-7.334-.353-4.053-.56-7.366-.46-7.373.1-.007.453 3.28.807 7.333.353 4.054.586 7.367.466 7.374Z"/>
  <path fill="#E0E0E0" d="M321.373 205.536c0 .093-3.16.373-7.066.62-3.907.247-7.087.373-7.087.28a69.664 69.664 0 0 1 7.067-.627c3.906-.233 7.08-.366 7.086-.273Z"/>
  <path fill="#263238" d="M345.613 174.063s-.16-.047-.473-.167l-1.333-.52-5.254-2.04-19.42-7.607-64.853-25.56h.14l-8.207 4.074-68 33.686-20.613 10.167-5.6 2.747-1.467.706c-.326.16-.5.234-.5.234l.487-.267 1.447-.733 5.586-2.807 20.574-10.273 67.946-33.78 8.207-4.074h.14l64.813 25.66 19.334 7.707 5.226 2.1 1.334.553.486.194ZM305.787 80.91a4.461 4.461 0 0 0-8.1-.054l-6.967.574 7.04 13.886 4.413-8.12a4.251 4.251 0 0 0 1.4-.38 4.457 4.457 0 0 0 2.214-5.907Zm-40.214-20.107 4.547-1.94-10.967-2.76a4.457 4.457 0 0 0-4.636-1.966 4.459 4.459 0 0 0-1.424 8.19 4.458 4.458 0 0 0 5.027-.284l10.413 6.373-2.96-7.613Z"/>
  <path fill="#263238" d="M353.333 197.109v-.093l-75.26-140.293-.426-.794-11.854 5.407 56.754 149.573.033.094 33.8 53.727.667-.101.78-.113.613-.093-6.993-11.114 4.086-10.526 10.82 4 4.767 15.766.567-.08.72-.106.666-.094-19.74-65.16Zm4.867 22.727-13.507-3.467 7.834-15.3 5.673 18.767Zm-14.7-3.773-16.613-4.267 24.52-11.173-7.907 15.44Zm6.273-21.574-17.26-4.773 7.08-14.207 10.18 18.98Zm-18.44-5.093-15.193-4.2 22.367-10.193-7.174 14.393Zm6.154-17.82-15.907-5.547 5.673-13.533 10.234 19.08Zm-17.04-5.94-14-4.873 19.793-9.014-5.793 13.887ZM325 148.303l-14.473-6.253 4.286-12.747 10.187 19Zm-15.58-6.727-12.4-5.333 16.767-7.64-4.367 12.973Zm3.333-16.14-.08.04-13.02-7.04 2.894-12.033 10.206 19.033Zm-12.84-23.927-11.333-7.626 1.5-10.747 9.833 18.373Zm-12.466-8.373-9.127-6.133 10.667-4.86-1.54 10.993Zm-9.674-32.893 9.64 18-9.913-8.353.273-9.647Zm-1.84 22.42-7-18.42 7.334 6.187-.334 12.233Zm.394-13.787-7.874-6.633 8.167-3.72-.293 10.353Zm1.126 2.527 9.54 8-9.9 4.513.36-12.513Zm.62 16.893 9.194 6.173-1.854 13.194-7.34-19.367Zm10.3 6.92 11.047 7.42-12.913 5.88 1.866-13.3Zm13.18 10.074-3.013 12.54-11.207-6.074 14.22-6.466Zm-14 7.959 10.707 5.787-3.3 13.733-7.407-19.52Zm11.8 6.381 11.94 6.453-15.166 6.893 3.226-13.346Zm-2.666 17.746 12.34 5.333-4.847 14.421-7.493-19.754Zm13.446 5.807 13.834 6-18.714 8.52 4.88-14.52Zm-4.16 18.667 14 4.879-6.373 15.22-7.627-20.099Zm15.14 5.279 15.147 5.28-21.453 9.767 6.306-15.047Zm-5.906 19.061 15.586 4.306-7.92 15.893-7.666-20.199ZM332 190.816l16.94 4.667-24.933 11.333 7.993-16Zm-6 22 16.987 4.36-6.394 12.48L326 212.816Zm18.18 4.667 13.82 3.546-20.48 9.334 6.66-12.88Zm6.52 34.6-9.073-14.427 12.826 4.753-3.753 9.674Zm4.187-10.794-14.307-5.333-.353-.553 20-9.1.206.666-5.546 14.32Zm1.126.414 4.934-12.794 4.986 16.494-9.92-3.7Z"/>
  <path fill="#263238" d="M254.233 123.103v-4.654c0-3.046 0-7.526-.04-13.266 0-11.487-.033-28-.06-48.2v-.127h.127l21.073-2.233h.074l.053.06 54.967 61.433 80 89.547 24.24 27.153 6.573 7.4 1.7 1.927c.38.433.573.666.573.666s-.206-.213-.6-.666c-.393-.454-.973-1.067-1.726-1.907-1.52-1.68-3.747-4.16-6.62-7.333l-24.294-27.094-80.1-89.466-54.933-61.434.127.054-21.12 2.187.12-.134c0 20.187-.04 36.714-.06 48.2v16.733c0 .8-.074 1.154-.074 1.154Z"/>
  <path fill="#263238" d="M255.447 104.269h-2.867a.254.254 0 0 0-.253.254v6.726c0 .14.113.254.253.254h2.867c.14 0 .253-.114.253-.254v-6.726a.254.254 0 0 0-.253-.254Z"/>
  <path fill="#263238" d="M259.74 112.623h-11.073a1.234 1.234 0 0 1 0-2.467h11.08a1.234 1.234 0 1 1-.007 2.467Zm-4.733 19.813-.04-1.58-1.634.72a9.167 9.167 0 0 0 0 1.753.757.757 0 0 0 .06.274.793.793 0 0 0 .4.273c.716.273 1.31.793 1.674 1.467a1.925 1.925 0 0 1-1.1 2.666 2 2 0 0 1-2.494-1.333c0-.273 0-.667-.373-.667-.54-.053-.773.734-.76 1.147.087 2.393 2.34 3.153 3.293 3.187a3.471 3.471 0 0 0 1.867-.4 3.623 3.623 0 0 0 1.747-2.474c.52-3.146-2.807-4.833-2.64-5.033Z"/>
  <path fill="#E0E0E0" d="m256.4 131.649 7.08-17.033a2.335 2.335 0 0 0-.217-2.193 2.342 2.342 0 0 0-1.943-1.04h-14.153a2.333 2.333 0 0 0-2.16 3.233l7.073 17.033a2.34 2.34 0 0 0 4.32 0Z"/>
  <path fill="#2941BE" d="m247.887 112.589-1.834 1.827c0 .067 0 .14.034.207l.6 1.44 3.473-3.474h-2.273Zm6.833 0h-2.28l-5.087 5.087.674 1.607 6.693-6.694Zm4.867 8.8 1.613-3.893-9.833 9.833.666 1.607 7.554-7.547Zm-1.587 3.9-5.26 5.26.173.427a1.42 1.42 0 0 0 .86.82l2.607-2.613 1.62-3.894Zm1.273-12.7H257l-8.307 8.3.667 1.614 9.913-9.914Zm3.227 1.327a1.372 1.372 0 0 0-1.047-1.226L250 124.11l.667 1.613 11.833-11.807Z"/>
  <path fill="#263238" d="M436.513 239.136h11.894a1.76 1.76 0 0 1 1.76 1.76v5.427h-15.414v-5.413a1.768 1.768 0 0 1 1.084-1.639c.214-.089.444-.135.676-.135Zm-28.693 5.4h-2.527V229.51a6.522 6.522 0 0 1 .307-1.961l1.273-3.933a.096.096 0 0 1 .133-.037.1.1 0 0 1 .034.037l1.487 2.667-.394 1.22a6.618 6.618 0 0 0-.313 2v15.033Z"/>
  <path fill="#2941BE" d="M470.093 247.269a5.5 5.5 0 0 0-4.126-3.333l-63.2-.033v-10.5a2.556 2.556 0 0 0-2.56-2.554h-30.54a2.56 2.56 0 0 0-2.434 1.774l-.913 2.893h3.4a2.67 2.67 0 0 1 2.04.947 2.497 2.497 0 0 1 .533 2.133l-3.266 15.5a2.666 2.666 0 0 1-2.58 2.047h-6.487c-.086.987-.027 1.982.173 2.953l.36 1.553-16.72 3.287a.701.701 0 0 0-.546.533l-1.574 4.227a2.536 2.536 0 0 0-.226.607c-.334 1.393-.087 3.726.753 3.726h17.913l-.76.907-1.013 3.147h113.793c.027-10.173-.24-25.507-2.02-29.814Zm-78.873-9.613-1.68 15.253c0 .194-.053.387-.087.574a6.704 6.704 0 0 1-6.666 5.24h-7.507a2.31 2.31 0 0 1-1.799-.861 2.316 2.316 0 0 1-.461-1.939l3.533-18.307a2.572 2.572 0 0 1 2.514-2.053h10.266a1.917 1.917 0 0 1 1.435.642 1.92 1.92 0 0 1 .479 1.498l-.027-.047Z"/>
  <path fill="#455A64" d="m419.207 284.67-48.434.666c-.313 0-.873-.933-.873-1.247v-5.406a.574.574 0 0 1 .573-.574h48.734a.562.562 0 0 1 .525.355.564.564 0 0 1 .041.219v5.406a.555.555 0 0 1-.161.41.568.568 0 0 1-.405.171Z"/>
  <path fill="#2941BE" d="m391.22 237.656-1.68 15.254c0 .193-.053.379-.087.573a6.663 6.663 0 0 1-6.666 5.233h-7.494a2.311 2.311 0 0 1-1.798-.865 2.324 2.324 0 0 1-.462-1.941l3.534-18.307a2.582 2.582 0 0 1 2.513-2.054h10.253a1.942 1.942 0 0 1 1.834 1.346c.082.259.11.532.08.801l-.027-.04Z"/>
  <mask id="a" width="20" height="24" x="372" y="235" maskUnits="userSpaceOnUse" style="mask-type:luminance">
    <path fill="#fff" d="m391.22 237.656-1.68 15.254c0 .193-.053.379-.087.573a6.663 6.663 0 0 1-6.666 5.233h-7.494a2.311 2.311 0 0 1-1.798-.865 2.324 2.324 0 0 1-.462-1.941l3.534-18.307a2.582 2.582 0 0 1 2.513-2.054h10.253a1.942 1.942 0 0 1 1.834 1.346c.082.259.11.532.08.801l-.027-.04Z"/>
  </mask>
  <g mask="url(#a)">
    <path fill="#2941BE" d="M367.233 232.616 360.4 253.85a10.167 10.167 0 0 0-.267 5.246l2.927 13.574h39.707v-39.267a2.56 2.56 0 0 0-2.56-2.56h-30.54a2.564 2.564 0 0 0-2.434 1.773Z"/>
  </g>
  <path fill="#455A64" d="M375.293 258.676a2.304 2.304 0 0 1-1.798-.86 2.315 2.315 0 0 1-.462-1.94l3.534-18.307a2.57 2.57 0 0 1 2.513-2.053h10.253a1.92 1.92 0 0 1 1.434.667 1.949 1.949 0 0 1 .48 1.5l-1.707 15.227c0 .193-.053.386-.087.573a6.704 6.704 0 0 1-6.666 5.24l-7.494-.047Zm-15.333-2.5a9.561 9.561 0 0 1 .453-2.2l5.934-18.427h3.393a2.677 2.677 0 0 1 2.04.94 2.53 2.53 0 0 1 .54 2.14l-3.273 15.494a2.672 2.672 0 0 1-2.574 2.053h-6.513Z"/>
  <path fill="#263238" d="M472.207 280.089h-113.76c-.867 0-.867-3.146 0-3.146h113.76c.873 0 .873 3.146 0 3.146Zm-69.34-35.353v.667c0 .46 0 1.093-.04 1.893a3000.24 3000.24 0 0 0-.214 6.967c-.086 2.92-.226 6.453-.36 10.333-.04.973-.073 2-.113 2.987a6.99 6.99 0 0 1-.667 3.093 4.223 4.223 0 0 1-2.62 2 11.713 11.713 0 0 1-3.333.4l-23.007-.433-6.966-.174-1.894-.066h-.493a.52.52 0 0 1-.167 0 .427.427 0 0 1 .167 0h2.387l6.973.066 23 .327a11.313 11.313 0 0 0 3.24-.373 3.906 3.906 0 0 0 2.42-1.8 6.668 6.668 0 0 0 .667-2.947c.046-1.013.086-2 .126-2.987.16-3.88.307-7.38.434-10.326.126-2.947.246-5.294.326-6.967.04-.8.08-1.433.1-1.893 0-.2 0-.36.04-.487a.47.47 0 0 1-.006-.28Z"/>
  <path fill="#263238" d="M370.447 272.83c-.1 0-.174-3.334-.174-7.447 0-4.114.074-7.453.174-7.453.1 0 .173 3.333.173 7.453s-.08 7.447-.173 7.447Zm5.953-41.861a7.602 7.602 0 0 1-.127 1.074c-.1.666-.266 1.686-.486 2.913a228.301 228.301 0 0 1-1.92 9.54 215.248 215.248 0 0 1-2.334 9.453 88.27 88.27 0 0 1-.806 2.84c-.084.353-.2.696-.347 1.027.047-.358.121-.712.22-1.06.18-.733.413-1.7.7-2.867a577.03 577.03 0 0 0 2.227-9.466 343.907 343.907 0 0 0 2-9.514l.593-2.886c.057-.36.151-.713.28-1.054Z"/>
  <path fill="#2941BE" d="M389.567 264.736c.218-.051.428-.137.62-.253a1.19 1.19 0 0 0 .426-.62 1.33 1.33 0 0 0-.12-.96 1.061 1.061 0 0 0-.986-.52h-4.974a1.035 1.035 0 0 0-1.013.953 1.051 1.051 0 0 0 .667 1.153c.106.04.219.061.333.06h2.447c.806 0 1.46.034 1.906.054.236-.01.471.012.7.066a2.534 2.534 0 0 1-.7.067c-.446 0-1.1.04-1.906.053h-2.434a1.402 1.402 0 0 1-.44-.066 1.399 1.399 0 0 1-.913-1.487 1.337 1.337 0 0 1 1.333-1.273h4.974a1.328 1.328 0 0 1 1.2.666c.099.188.154.395.16.607.011.183-.011.366-.067.54a1.27 1.27 0 0 1-.54.667 1.052 1.052 0 0 1-.507.166c-.106.154-.166.134-.166.127Z"/>
  <path fill="#263238" d="M464.727 248.376c0 .1-4.667.173-10.387.173-5.72 0-10.387-.073-10.387-.173 0-.1 4.667-.173 10.387-.173 5.72 0 10.387.08 10.387.173Zm0 2.067c0 .1-4.667.18-10.387.18-5.72 0-10.387-.08-10.387-.18 0-.1 4.667-.174 10.387-.174 5.72 0 10.387.08 10.387.174Zm0 2.073c0 .094-4.667.174-10.387.174-5.72 0-10.387-.08-10.387-.174 0-.093 4.667-.173 10.387-.173 5.72 0 10.387.073 10.387.173Zm0 2.067c0 .093-4.667.173-10.387.173-5.72 0-10.387-.08-10.387-.173 0-.094 4.667-.174 10.387-.174 5.72 0 10.387.074 10.387.174Zm0 2.066c0 .094-4.667.174-10.387.174-5.72 0-10.387-.08-10.387-.174 0-.093 4.667-.173 10.387-.173 5.72 0 10.387.073 10.387.173Zm0 2.067c0 .093-4.667.174-10.387.174-5.72 0-10.387-.081-10.387-.174 0-.093 4.667-.173 10.387-.173 5.72 0 10.387.073 10.387.173Zm0 2.067c0 .093-4.667.173-10.387.173-5.72 0-10.387-.08-10.387-.173 0-.093 4.667-.174 10.387-.174 5.72 0 10.387.074 10.387.174Zm-117.927 49.1c-6.233 0-11.48-6-11.48-12.253 0-6.254 5.487-11.494 11.72-11.494l100.42-4.56a13.49 13.49 0 0 1 12.593 7.027 13.33 13.33 0 0 1 1.12 9.3c-2.666 12.133-12.74 12-16.666 11.727-3.927-.274-97.707.253-97.707.253Z"/>
  <path fill="#455A64" d="M346.8 306.936a9.38 9.38 0 1 0 0-18.76 9.38 9.38 0 0 0 0 18.76Zm100.027.847c6.701 0 12.133-5.432 12.133-12.134 0-6.701-5.432-12.133-12.133-12.133-6.701 0-12.134 5.432-12.134 12.133 0 6.702 5.433 12.134 12.134 12.134Z"/>
  <path fill="#455A64" d="m448.18 283.903-.26.04-.767.087-2.946.293c-2.567.253-6.274.587-10.867.96a978.733 978.733 0 0 1-35.9 2.246c-14.033.62-26.767.867-36 .921h-10.907l-2.96-.04h-.773a1.13 1.13 0 0 1-.26 0h3.993l10.907-.107c9.2-.12 21.92-.407 35.953-1.02a1150.145 1150.145 0 0 0 35.9-2.147l10.874-.846 2.953-.234.773-.046c.09-.049.187-.085.287-.107Zm-3.86 22.733c0 .094-21.833.174-48.767.174-26.933 0-48.766-.08-48.766-.174 0-.093 21.826-.173 48.766-.173 26.94 0 48.767.073 48.767.173Z"/>
  <path fill="#2941BE" d="M363.527 272.503a22.715 22.715 0 0 1-.667-2.36c-.407-1.46-1-3.474-1.6-5.72a46.503 46.503 0 0 1-1.253-5.814 13.296 13.296 0 0 1-.107-1.806c-.005-.225.024-.45.087-.667.053 0 0 .94.26 2.427s.746 3.533 1.333 5.767c.587 2.233 1.16 4.26 1.507 5.746.173.74.306 1.334.373 1.76.054.218.077.443.067.667Z"/>
  <path fill="#FAFAFA" d="M440.147 303.143a3.196 3.196 0 0 1-.7-.46 8.4 8.4 0 0 1-1.56-1.647 9.375 9.375 0 0 1-1.46-3.047 8.804 8.804 0 0 1 1.533-7.893 9.477 9.477 0 0 1 2.493-2.273 8.416 8.416 0 0 1 2.074-.94c.263-.09.536-.146.813-.167-.965.34-1.889.787-2.753 1.333a9.824 9.824 0 0 0-2.374 2.26 8.73 8.73 0 0 0-1.48 7.62 9.411 9.411 0 0 0 1.334 2.98 12.955 12.955 0 0 0 2.08 2.234Z"/>
  <path fill="#fff" d="M387.44 246.136a64.693 64.693 0 0 1-5.213 4 60.77 60.77 0 0 1-5.414 3.7 65.352 65.352 0 0 1 5.214-4 61.33 61.33 0 0 1 5.413-3.7Zm.8-2.833a46.938 46.938 0 0 1-4.54 3.386 45.992 45.992 0 0 1-4.74 3.1 48.466 48.466 0 0 1 4.54-3.386 46.544 46.544 0 0 1 4.74-3.1Zm-19.573 4.373a12.025 12.025 0 0 1-2.3 1.813 12.572 12.572 0 0 1-2.507 1.534 12.843 12.843 0 0 1 2.307-1.814 12.443 12.443 0 0 1 2.5-1.533Zm1.366-2.653a35.094 35.094 0 0 1-5.473 4.246 34.302 34.302 0 0 1 5.473-4.246Z"/>
  <path fill="#2941BE" d="M390.967 261.243a40.175 40.175 0 0 1-7.454 0 40.175 40.175 0 0 1 7.454 0Z"/>
  <path fill="#FAFAFA" d="M344.933 305.516a2.831 2.831 0 0 1-.813-.173 7.79 7.79 0 0 1-2.053-1.007 8.858 8.858 0 0 1-2.367-2.426 8.001 8.001 0 0 1-.567-8 8.72 8.72 0 0 1 2-2.734 7.65 7.65 0 0 1 1.894-1.286c.247-.128.509-.225.78-.287a11.754 11.754 0 0 0-2.5 1.753 8.84 8.84 0 0 0-1.887 2.667 7.854 7.854 0 0 0 .54 7.7 8.813 8.813 0 0 0 2.247 2.4c.843.583 1.76 1.052 2.726 1.393Z"/>
  <path fill="#fff" d="M359.16 268.51c0 .093-3.613.173-8.073.173-4.46 0-8.08-.08-8.08-.173 0-.094 3.613-.174 8.08-.174 4.466 0 8.073.08 8.073.174Z"/>
  <path fill="#2941BE" d="m286.347 70.976-6.08-13.06a8.075 8.075 0 0 0-7.662-4.654 8.064 8.064 0 0 0-5.598 2.608 8.057 8.057 0 0 0-2.114 5.801 8.06 8.06 0 0 0 .747 3.059l6.087 13.053a.485.485 0 0 0 .666.24l13.734-6.4a.486.486 0 0 0 .22-.647Z"/>
  <path fill="#E0E0E0" d="M53.267 246.636H49.84v62.994h3.427v-62.994Z"/>
  <path fill="#2941BE" d="M55.02 244.476a3.455 3.455 0 0 1-5.895 2.442 3.452 3.452 0 0 1 2.442-5.895 3.456 3.456 0 0 1 3.453 3.453Z"/>
  <path fill="#E0E0E0" d="M121.36 246.636h-3.427v62.994h3.427v-62.994Z"/>
  <path fill="#2941BE" d="M123.113 244.476a3.45 3.45 0 0 1-4.127 3.387 3.45 3.45 0 0 1-2.516-4.708 3.453 3.453 0 0 1 6.643 1.321Zm4.74 8.24H40.06v15.707h87.793v-15.707Z"/>
  <path fill="#F5F5F5" d="m49.993 252.709-.153.267-9.02 15.447h-.76v-15.714h9.933Zm22.194 0L63 268.423H51.007l3.646-6.24 5.534-9.474h12Zm22.18 0-9.18 15.714h-12l9.18-15.714h12Zm22.173.007-9.18 15.707H95.367l9.18-15.707h11.993Zm11.313 0v15.707h-10.306l9.186-15.707h1.12Z"/>
  <path fill="#2941BE" d="M127.853 276.976H40.06v15.707h87.793v-15.707Z"/>
  <path fill="#F5F5F5" d="m49.993 276.983-.153.26-9.02 15.446h-.76v-15.706h9.933Zm22.194 0L63 292.689H51.007l3.646-6.24 5.534-9.466h12Zm22.18 0-9.18 15.706h-12l9.18-15.706h12Zm22.173 0-9.18 15.706H95.367l9.18-15.706h11.993Zm11.313 0v15.706h-10.306l9.186-15.706h1.12Z"/>
  <path fill="#263238" d="M127.853 268.423v-4.114c0-2.666-.033-6.586-.053-11.593l.093.087-87.826.106.173-.173v15.707l-.173-.174 62.5.074 18.533.053h6.76-6.68l-18.493.047-62.62.073h-.174v-15.98h.18l87.787.087h.087v.093c0 5.027-.04 8.96-.047 11.647v3.806c0 .187-.047.254-.047.254Zm0 24.266v-4.113c0-2.667-.033-6.587-.053-11.6l.093.093-87.786.08.173-.173v15.713l-.173-.173 62.5.073 18.533.054h6.76-6.68l-18.493.053-62.62.073h-.174v-15.966h.18l87.787.086h.087v.087c0 5.033-.04 8.967-.047 11.653v3.807c0 .187-.087.253-.087.253Zm340 17.194c0 .093-96.946.173-216.506.173s-216.534-.08-216.534-.173c0-.094 96.927-.174 216.534-.174 119.606 0 216.506.074 216.506.174Z"/>
</svg>
