<svg xmlns="http://www.w3.org/2000/svg" width="300" height="138" fill="none" viewBox="0 0 300 138">
  <path fill="#fff" d="M0 0h300v137.909H0z"/>
  <path fill="#2941BE" fill-rule="evenodd" d="M0 31.738v.04c.007.839.275 1.094 1.134 1.094H30.98v74.81h34.006c.871 0 1.133-.264 1.133-1.133V32.872h29.094v74.81h35.139V70.276h31.738v37.406h34.759V3.399H162.09v36.65h-31.738V3.399H0v28.339Zm287.154 54.785h5.666v5.669h-5.666v-5.669ZM245.487 0h9.787c7.814.445 15.321 1.9 21.541 3.916 4.036 1.306 7.055 2.75 10.594 4.517 3.506 1.75 6.156 3.891 9.19 5.924-.42 1.57-7.402 10.69-8.528 12.252l-8.474 11.929c-2.15-1.136-3.818-2.482-6.168-3.656-6.87-3.431-14.489-6.545-22.925-6.545-2.867 0-7.871-.487-9.742 1.98-1.116 1.47-.806 3.559.355 4.76 1.878 1.94 6.59 2.934 9.911 3.69 9.378 2.14 12.157 2.36 21.991 5.215 6.628 1.925 12.467 5.332 17.756 9.45 4.792 3.733 8.468 12.041 8.468 18.734V92.57h-6.046v6.046h-6.043V92.57h-6.046v6.046h-6.046v5.666h6.046v6.423h-6.046v-6.046h-6.046v6.046c-5.281 0-5.127.422-5.289-1.511-1.775 0-3.591.248-5.641.402-12.154.924-25.762-.586-37.002-4.61-5.854-2.092-19.626-8.55-22.721-13.173l14.078-16.904c.886-.999 1.56-1.82 2.429-2.86 1.034-1.235 1.007-1.605 2.383-2.526 1.413.746 2.195 1.493 3.623 2.422 8.401 5.469 20.371 9.667 30.762 9.667 2.487 0 11.335.327 11.335-3.401V76.7c0-7.966-30.21-4.413-50.2-20.455-.64-.515-1.084-.73-1.663-1.359-6.106-6.653-7.08-12.539-7.08-21.26 0-5.116 2.315-11.657 4.31-14.958C215.944 6.081 230.538.89 245.487 0Zm29.575 86.523h6.046v5.669h-6.046v-5.669Zm-6.046-6.046h6.046v5.669h-6.046v-5.669Zm17.004 0h-4.912v-6.043h6.046v4.91c0 .87-.265 1.133-1.134 1.133ZM156.422 137.53h3.024v-12.089l2.645 3.778c.921 1.381 1.848 2.65 2.644 4.155 1.032-.754 3.704-5.291 4.835-6.877.045-.068.11-.16.155-.222l.162-.215c.529-.689.202-.26.517-.619v12.089h3.022v-17.379c-3.926 0-2.99-.701-5.742 3.704-.826 1.321-1.835 3.414-2.949 4.23-.911-1.725-1.538-2.617-2.572-4.228-2.575-4.015-1.314-3.706-5.741-3.706v17.379Zm-18.513-9.068h-4.912v-5.289c6.603 0 7.557-.719 7.557 3.401 0 1.222-1.371 1.888-2.645 1.888Zm-8.313 9.068h3.401v-6.044c4.418 0 3.394-.422 5.517 2.795.682 1.036 1.765 2.223 2.04 3.249h3.778c-.561-2.103-3.541-4.495-4.155-6.8 5.646-.47 4.78-10.579-1.134-10.579h-9.447v17.379Zm-82.745 0h3.4v-11.712c.868.996 1.515 1.758 2.377 2.914.836 1.124 1.425 1.9 2.265 3.024 4.272 5.726 3.698 5.774 7.072 5.774v-17.379H58.94v11.713c-1.441-1.661-8.411-10.674-8.69-11.713h-3.4v17.379Zm61.588-2.645c-7.577 0-7.721-12.089 0-12.089 7.415 0 7.579 12.089 0 12.089Zm.207 3.024h-1.063c-1.968-.112-3.911-.854-5.492-2.342-2.972-2.799-2.722-5.137-2.722-8.239 0-1.778 1.701-4.252 2.722-5.214 5.105-4.805 15.416-2.185 15.416 6.725 0 5.317-4.333 8.813-8.861 9.07Zm182.286-13.982c.325 1.396 1.988 5.187 2.645 6.426h-5.289c.354-1.526.659-1.956 1.238-3.297.253-.584.435-1.131.642-1.623l.764-1.506Zm-9.067 13.603h3.399c.434-1.856 1.148-2.595 1.51-4.156h7.937c.719 1.361 1.186 2.827 1.888 4.156H300c-.622-1.176-1.326-2.927-1.883-4.163l-5.674-13.595h-3.024l-5.676 13.215c-.512 1.164-1.594 3.319-1.878 4.543Zm-88.037-13.223h.757c.162 1.953 1.816 4.108 2.265 6.046h-5.289c.509-2.19 1.723-3.714 2.267-6.046Zm-8.69 13.223h3.401c.362-1.561 1.079-2.298 1.511-4.156h8.313c.3 1.287.984 3.062 1.511 4.156h3.402l-5.669-13.223c-.502-1.037-1.628-3.416-1.891-4.535h-3.021l-5.614 13.278a26.64 26.64 0 0 1-.937 2.087c-.444.927-.622 1.594-1.006 2.393Zm70.278-8.691c0 5.874 4.308 8.826 8.603 9.07h1.174c2.43-.144 4.73-1.163 6.091-3.024l-1.963-2.195c-1.538 1.009-1.888 2.195-4.837 2.195-6.933 0-8.463-12.089.754-12.089 2.11 0 2.51 1.448 4.158 1.888.617-.452 1.441-1.598 1.888-2.268-1.144-.766-1.194-1.268-2.632-1.9-5.824-2.567-13.236 1.084-13.236 8.323ZM75.188 137.53h3.401v-6.8c9.832 0 8.69.829 8.69-3.022h-8.69v-4.535h9.445v-3.022H75.188v17.379Zm138.289-15.491c0 1.678 1.763 1.134 5.666 1.134v14.357h3.402v-14.357h5.289v-3.022h-14.357v1.888Zm26.446 15.491h3.024v-17.379h-3.024v17.379Zm-209.319 0h3.022v-17.379h-3.022v17.379Zm262.216-32.115c0 6.455-1.248 5.289 6.423 5.289v-6.423c-4.297 0-6.423-.609-6.423 1.134Zm-99.748 13.223c1.92 0 2.927.509 5.292-3.022-1.444-.337-1.584-.799-3.025-1.133-.464 1.743-1.8 2.412-2.267 4.155Z" clip-rule="evenodd"/>
</svg>
