<svg xmlns="http://www.w3.org/2000/svg" width="44" height="45" fill="none" viewBox="0 0 44 45">
  <g filter="url(#a)">
    <path fill="#00E676" d="m12.534 34.858.653.327A17.053 17.053 0 0 0 22 37.582c9.546-.022 17.389-7.884 17.389-17.43a17.44 17.44 0 0 0-5.09-12.309 17.327 17.327 0 0 0-12.333-5.159c-9.502 0-17.32 7.82-17.32 17.32l.001.225c.029 3.23.932 6.392 2.614 9.15l.436.654-1.743 6.427 6.58-1.602Z"/>
    <path fill="#fff" d="M36.237 5.883A19.615 19.615 0 0 0 22.141 0h-.033C11.196 0 2.217 8.98 2.217 19.891v.153c.042 3.469.94 6.874 2.615 9.912L2 40.305l10.556-2.723a19.425 19.425 0 0 0 9.52 2.396c10.952-.06 19.93-9.09 19.924-20.043a19.781 19.781 0 0 0-5.763-14.052ZM22.141 36.6a16.174 16.174 0 0 1-8.376-2.287l-.654-.327-6.285 1.634 1.634-6.21-.436-.653a16.525 16.525 0 0 1-2.476-8.7c0-9.065 7.46-16.525 16.525-16.525 9.065 0 16.525 7.46 16.525 16.525a16.54 16.54 0 0 1-7.807 14.038 15.863 15.863 0 0 1-8.595 2.505m9.575-12.091-1.198-.545s-1.743-.762-2.832-1.307c-.11 0-.218-.109-.327-.109a1.58 1.58 0 0 0-.763.218c-.232.136-.109.109-1.634 1.852a.6.6 0 0 1-.544.327h-.11a.83.83 0 0 1-.435-.218l-.545-.218a10.574 10.574 0 0 1-3.159-2.07c-.218-.218-.544-.436-.762-.653a12.184 12.184 0 0 1-2.07-2.615l-.109-.218a1.584 1.584 0 0 1-.218-.435.816.816 0 0 1 .11-.545c.098-.163.435-.545.762-.871.326-.327.326-.545.544-.763a1.343 1.343 0 0 0 .218-1.09 42.519 42.519 0 0 0-1.743-4.139 1.265 1.265 0 0 0-.762-.544h-1.198c-.218 0-.436.109-.654.109l-.109.108c-.218.11-.436.327-.654.436-.217.11-.326.436-.544.654a5.555 5.555 0 0 0-1.199 3.377 6.45 6.45 0 0 0 .545 2.505l.11.327a18.158 18.158 0 0 0 4.03 5.556l.435.435c.317.263.61.555.872.872a19.45 19.45 0 0 0 7.832 4.14c.327.108.762.108 1.09.217h1.089a4.03 4.03 0 0 0 1.634-.436 4.72 4.72 0 0 0 .762-.436l.218-.217c.218-.218.436-.327.654-.545.213-.19.396-.41.544-.654.21-.488.356-1 .436-1.525v-.762a1.37 1.37 0 0 0-.327-.218"/>
  </g>
  <defs>
    <filter id="a" width="44" height="44.305" x="0" y="0" color-interpolation-filters="sRGB" filterUnits="userSpaceOnUse">
      <feFlood flood-opacity="0" result="BackgroundImageFix"/>
      <feColorMatrix in="SourceAlpha" result="hardAlpha" values="0 0 0 0 0 0 0 0 0 0 0 0 0 0 0 0 0 0 127 0"/>
      <feOffset dy="2"/>
      <feGaussianBlur stdDeviation="1"/>
      <feComposite in2="hardAlpha" operator="out"/>
      <feColorMatrix values="0 0 0 0 0 0 0 0 0 0 0 0 0 0 0 0 0 0 0.25 0"/>
      <feBlend in2="BackgroundImageFix" result="effect1_dropShadow_2_1310"/>
      <feBlend in="SourceGraphic" in2="effect1_dropShadow_2_1310" result="shape"/>
    </filter>
  </defs>
</svg>
